<svg width="24" height="24" viewBox="0 0 24 24" fill="none" xmlns="http://www.w3.org/2000/svg">
<path d="M12 0C5.3832 0 0 5.3832 0 12C0 18.6168 5.3832 24 12 24C18.6168 24 24 18.6168 24 12C24 5.3832 18.6168 0 12 0ZM12 21.4466C6.79119 21.4466 2.55315 17.2091 2.55315 12C2.55315 6.79094 6.79119 2.5534 12 2.5534C17.2088 2.5534 21.4468 6.79094 21.4468 12C21.4468 17.2091 17.2088 21.4466 12 21.4466Z" fill="#71E7D6"/>
<path d="M18.2537 11.6295H12.8609V5.14541C12.8609 4.59975 12.4185 4.15735 11.8728 4.15735C11.3272 4.15735 10.8848 4.59975 10.8848 5.14541V12.6176C10.8848 13.1633 11.3272 13.6057 11.8728 13.6057H18.2537C18.7994 13.6057 19.2418 13.1633 19.2418 12.6176C19.2418 12.072 18.7994 11.6295 18.2537 11.6295Z" fill="#71E7D6"/>
</svg>
