<svg width="18" height="18" viewBox="0 0 18 18" fill="none" xmlns="http://www.w3.org/2000/svg">
<g clip-path="url(#clip0)">
<path d="M8.93445 9.6989C8.95309 9.6989 8.97173 9.6989 8.99409 9.6989C9.00155 9.6989 9.009 9.6989 9.01646 9.6989C9.02764 9.6989 9.04255 9.6989 9.05373 9.6989C10.1459 9.68027 11.0293 9.29633 11.6816 8.56202C13.1167 6.94429 12.8781 4.17105 12.852 3.9064C12.7588 1.91965 11.8195 0.969145 11.0442 0.525575C10.4664 0.193829 9.79177 0.0149099 9.03882 0H9.01273C9.009 0 9.00155 0 8.99782 0H8.97546C8.56171 0 7.74912 0.0670946 6.97007 0.510665C6.1873 0.954235 5.23307 1.90474 5.13988 3.9064C5.11379 4.17105 4.87523 6.94429 6.31031 8.56202C6.95889 9.29633 7.8423 9.68027 8.93445 9.6989ZM6.13512 3.99959C6.13512 3.9884 6.13884 3.97722 6.13884 3.96977C6.26185 1.29716 8.15914 1.01015 8.97173 1.01015H8.98664C8.99409 1.01015 9.00528 1.01015 9.01646 1.01015C10.0229 1.03251 11.7338 1.44253 11.8493 3.96977C11.8493 3.98095 11.8493 3.99213 11.8531 3.99959C11.8568 4.02568 12.1177 6.56036 10.9324 7.8948C10.4627 8.4241 9.8365 8.68503 9.01273 8.69248C9.00528 8.69248 9.00155 8.69248 8.99409 8.69248C8.98664 8.69248 8.98291 8.69248 8.97546 8.69248C8.15541 8.68503 7.52547 8.4241 7.05953 7.8948C5.87792 6.56782 6.13139 4.02195 6.13512 3.99959Z" fill="#545454"/>
<path d="M16.6545 14.2986C16.6545 14.2949 16.6545 14.2912 16.6545 14.2874C16.6545 14.2576 16.6508 14.2278 16.6508 14.1942C16.6284 13.4562 16.58 11.7304 14.9622 11.1787C14.951 11.175 14.9361 11.1713 14.9249 11.1675C13.2439 10.7389 11.8461 9.76972 11.8311 9.75854C11.6038 9.59826 11.2907 9.65417 11.1304 9.88155C10.9701 10.1089 11.026 10.422 11.2534 10.5823C11.3167 10.627 12.8003 11.6596 14.6566 12.1367C15.5251 12.4461 15.622 13.3742 15.6481 14.2241C15.6481 14.2576 15.6481 14.2874 15.6518 14.3173C15.6555 14.6527 15.6332 15.1709 15.5735 15.469C14.9697 15.812 12.6027 16.9973 9.00198 16.9973C5.41615 16.9973 3.03429 15.8083 2.42671 15.4653C2.36707 15.1671 2.34098 14.649 2.34843 14.3135C2.34843 14.2837 2.35216 14.2539 2.35216 14.2203C2.37825 13.3705 2.47517 12.4423 3.34367 12.1329C5.19995 11.6558 6.68349 10.6196 6.74686 10.5786C6.97424 10.4183 7.03015 10.1052 6.86987 9.87782C6.70958 9.65044 6.39648 9.59453 6.1691 9.75481C6.15419 9.76599 4.76384 10.7351 3.07529 11.1638C3.06038 11.1675 3.0492 11.1713 3.03802 11.175C1.42029 11.7304 1.37183 13.4562 1.34947 14.1905C1.34947 14.2241 1.34947 14.2539 1.34574 14.2837C1.34574 14.2874 1.34574 14.2912 1.34574 14.2949C1.34201 14.4887 1.33829 15.484 1.53584 15.9834C1.57312 16.0804 1.64021 16.1624 1.72967 16.2183C1.8415 16.2928 4.52155 18 9.00571 18C13.4899 18 16.1699 16.2891 16.2818 16.2183C16.3675 16.1624 16.4383 16.0804 16.4756 15.9834C16.662 15.4877 16.6582 14.4924 16.6545 14.2986Z" fill="#545454"/>
</g>
<defs>
<clipPath id="clip0">
<rect width="18" height="18" fill="white"/>
</clipPath>
</defs>
</svg>
