<svg width="18" height="18" viewBox="0 0 18 18" fill="none" xmlns="http://www.w3.org/2000/svg">
<path d="M15.1087 1.21295H2.87371C1.59449 1.21295 0.553711 2.25353 0.553711 3.53296V11.0205C0.553711 12.2971 1.58996 13.336 2.86547 13.3405V16.7383L7.74845 13.3405H15.1087C16.3879 13.3405 17.4287 12.2997 17.4287 11.0205V3.53296C17.4287 2.25353 16.3879 1.21295 15.1087 1.21295V1.21295ZM16.4399 11.0205C16.4399 11.7545 15.8428 12.3517 15.1087 12.3517H7.43822L3.85424 14.8457V12.3517H2.87371C2.13966 12.3517 1.54248 11.7545 1.54248 11.0205V3.53296C1.54248 2.79879 2.13966 2.20172 2.87371 2.20172H15.1087C15.8428 2.20172 16.4399 2.79879 16.4399 3.53296V11.0205Z" fill="#545454"/>
<path d="M5.07031 4.70673H12.9123V5.6955H5.07031V4.70673Z" fill="#545454"/>
<path d="M5.07031 6.8161H12.9123V7.80487H5.07031V6.8161Z" fill="#545454"/>
<path d="M5.07031 8.92548H12.9123V9.91425H5.07031V8.92548Z" fill="#545454"/>
</svg>
