<svg width="178" height="362" viewBox="0 0 178 362" fill="none" xmlns="http://www.w3.org/2000/svg">
<path d="M106.032 38.8321V53.7963L94.8989 57.9863L82.8377 53.7963V38.8321L94.8989 34.7917L106.032 38.8321Z" fill="#92FBFB"/>
<path d="M37.2769 54.5392V78.5888L19.384 85.3227L-3.05176e-05 78.5888V54.5392L19.384 48.0458L37.2769 54.5392Z" fill="#1FFFFF"/>
<path d="M78.6958 28.7152V52.2304L60.8029 58.8146L41.4189 52.2304V28.7152L60.8029 22.3661L78.6958 28.7152Z" fill="#1FFFFF"/>
<path d="M135.025 130.362V111.683L121.033 105.204L107.689 111.683V130.362L121.033 136.682L135.025 130.362Z" fill="#71E7D6"/>
<path d="M30.6499 37.2579L30.6499 22.5114L19.6255 17.3959L9.11214 22.5114L9.11214 37.2579L19.6255 42.2471L30.6499 37.2579Z" fill="#71E7D6"/>
<path d="M125.913 76.4349V95.6746L111.996 101.062L96.92 95.6746V76.4349L111.996 71.2402L125.913 76.4349Z" fill="#1FFFFF"/>
<path d="M134.197 88.7163V107.422L120.28 112.659L105.204 107.422V88.7163L120.28 83.6659L134.197 88.7163Z" fill="#1FFFFF"/>
<path d="M91.1211 168.385V187.624L77.2044 193.011L62.128 187.624V168.385L77.2044 163.19L91.1211 168.385Z" fill="#1FFFFF"/>
<path d="M45.5605 188.153V197.773L38.4034 200.467L30.6498 197.773V188.153L38.4034 185.556L45.5605 188.153Z" fill="#92FBFB"/>
<path d="M72.897 233.903V210.308L55.0883 202.124L38.1052 210.308L38.1052 233.903L55.0883 241.886L72.897 233.903Z" fill="#71E7D6"/>
<path d="M38.9336 175.255L38.9336 152.152L21.5489 144.137L4.97021 152.152L4.97021 175.255L21.5489 183.071L38.9336 175.255Z" fill="#71E7D6"/>
<path d="M150.764 69.8845V46.29L133.38 38.1052L116.801 46.29V69.8845L133.38 77.8672L150.764 69.8845Z" fill="#71E7D6"/>
<path d="M88.6362 136.321V113.218L70.8276 105.204L53.8445 113.218L53.8445 136.321L70.8276 144.137L88.6362 136.321Z" fill="#71E7D6"/>
<path d="M92.7778 70.7129V47.1184L74.9692 38.9336L57.9861 47.1184L57.9861 70.7129L74.9692 78.6956L92.7778 70.7129Z" fill="#71E7D6"/>
<path d="M80.3525 168.468V149.789L65.936 143.309L52.1878 149.789V168.468L65.936 174.787L80.3525 168.468Z" fill="#71E7D6"/>
<path d="M52.1875 338.627V328.304L44.1312 324.723L36.4484 328.304V338.627L44.1312 342.119L52.1875 338.627Z" fill="#92FBFB"/>
<path d="M28.9932 314.462V322.478L23.8241 324.723L18.2243 322.478V314.462L23.8241 312.297L28.9932 314.462Z" fill="#92FBFB"/>
<path d="M116.801 223.522V235.28L108.848 238.572L100.233 235.28V223.522L108.848 220.348L116.801 223.522Z" fill="#92FBFB"/>
<path d="M56.3296 261.05V270.67L49.1724 273.364L41.4188 270.67V261.05L49.1724 258.453L56.3296 261.05Z" fill="#92FBFB"/>
<path d="M88.6362 283.775V288.585L85.0576 289.931L81.1809 288.585V283.775L85.0576 282.476L88.6362 283.775Z" fill="#92FBFB"/>
<path d="M86.1509 244.013V248.823L82.5723 250.169L78.6955 248.823V244.013L82.5723 242.714L86.1509 244.013Z" fill="#92FBFB"/>
<path d="M98.5767 120.227V129.846L91.8171 132.54L84.4943 129.846V120.227L91.8171 117.629L98.5767 120.227Z" fill="#1FFFFF"/>
<path d="M25.6797 109.458V119.078L18.5225 121.771L10.7689 119.078V109.458L18.5225 106.86L25.6797 109.458Z" fill="#1FFFFF"/>
<path d="M59.6431 123.508V142.213L45.7264 147.451L30.6499 142.213V123.508L45.7264 118.458L59.6431 123.508Z" fill="#1FFFFF"/>
<path d="M125.913 62.2083V80.9135L111.996 86.151L96.92 80.9135V62.2083L111.996 57.1578L125.913 62.2083Z" fill="#1FFFFF"/>
<path d="M112.659 128.981V143.411L101.923 147.451L90.293 143.411V128.981L101.923 125.085L112.659 128.981Z" fill="#92FBFB"/>
<path d="M64.6133 43.658V58.0878L53.4799 62.1281L41.4188 58.0878V43.658L53.4799 39.762L64.6133 43.658Z" fill="#92FBFB"/>
<path d="M101.89 87.5619V101.992L90.7568 106.032L78.6956 101.992V87.5619L90.7568 83.6659L101.89 87.5619Z" fill="#92FBFB"/>
<path d="M62.1279 90.1913V105.156L50.9946 109.346L38.9334 105.156V90.1913L50.9946 86.151L62.1279 90.1913Z" fill="#92FBFB"/>
<path d="M67.0986 194.994V199.27L64.3153 200.467L61.3 199.27V194.994L64.3153 193.84L67.0986 194.994Z" fill="#71E7D6"/>
<path d="M20.7095 127.896V132.171L17.9261 133.368L14.9108 132.171V127.896L17.9261 126.741L20.7095 127.896Z" fill="#71E7D6"/>
<path d="M95.2632 108.015V112.29L92.8775 113.487L90.2929 112.29V108.015L92.8775 106.86L95.2632 108.015Z" fill="#71E7D6"/>
<path d="M177.272 79.8501V84.1255L174.489 85.3227L171.474 84.1255V79.8501L174.489 78.6957L177.272 79.8501Z" fill="#71E7D6"/>
<path d="M142.48 178.176V184.589L138.504 186.384L134.197 184.589V178.176L138.504 176.444L142.48 178.176Z" fill="#71E7D6"/>
<path d="M115.144 192.258V198.671L111.168 200.467L106.86 198.671V192.258L111.168 190.526L115.144 192.258Z" fill="#71E7D6"/>
<path d="M27.3364 137.403V140.076L25.7459 140.824L24.0229 140.076V137.403L25.7459 136.682L27.3364 137.403Z" fill="#92FBFB"/>
<path d="M149.936 96.813V99.4852L148.346 100.233L146.623 99.4852V96.813L148.346 96.0916L149.936 96.813Z" fill="#92FBFB"/>
<path d="M117.629 163.842V172.393L111.665 174.787L105.204 172.393V163.842L111.665 161.533L117.629 163.842Z" fill="#92FBFB"/>
<path d="M125.913 144.859V147.531L124.323 148.279L122.6 147.531V144.859L124.323 144.137L125.913 144.859Z" fill="#92FBFB"/>
<path d="M170.646 128.184V133.529L167.067 135.025L163.19 133.529V128.184L167.067 126.741L170.646 128.184Z" fill="#92FBFB"/>
<path d="M62.9565 182.136V184.808L61.3661 185.556L59.643 184.808V182.136L61.3661 181.414L62.9565 182.136Z" fill="#92FBFB"/>
<path d="M40.4704 334.013C42.3407 334.786 43.5605 336.61 43.5605 338.634V351.249C43.5605 353.249 42.3686 355.057 40.5303 355.845L33.1093 359.025C31.8964 359.545 30.5271 359.565 29.3001 359.079L20.8996 355.756C18.992 355.001 17.739 353.158 17.739 351.106L17.739 338.774C17.739 336.701 19.0192 334.842 20.9568 334.103L29.3606 330.897C30.5526 330.442 31.8735 330.46 33.0527 330.947L40.4704 334.013Z" stroke="#71E7D6" stroke-width="4"/>
<path d="M41.2043 303.445L45.3892 305.314V312.578L41.2038 314.516L36.6203 312.557V305.335L41.2043 303.445Z" stroke="#71E7D6" stroke-width="2"/>
<path d="M27.9499 281.079L32.1348 282.948V290.212L27.9494 292.15L23.3659 290.191V282.969L27.9499 281.079Z" stroke="#92FBFB" stroke-width="2"/>
<path d="M34.14 260.066L47.374 265.518V285.97L34.1393 291.623L19.7241 285.939L19.7241 265.548L34.14 260.066Z" stroke="#71E7D6" stroke-width="3"/>
<path d="M25.8558 238.534L39.0903 244.115V265.12L25.8551 270.908L11.4404 265.089L11.4404 244.146L25.8558 238.534Z" stroke="#92FBFB" stroke-width="3"/>
<path d="M37.8506 216.997L50.6875 222.432V242.905L37.8498 248.541L23.866 242.874L23.866 222.462L37.8506 216.997Z" stroke="#92FBFB" stroke-width="3"/>
<path d="M26.6849 188.826L39.9189 194.278V214.729L26.6842 220.383L12.2691 214.699L12.2691 194.308L26.6849 188.826Z" stroke="#92FBFB" stroke-width="3"/>
<path d="M84.6712 148.236L97.9053 153.687V174.139L84.6705 179.793L70.2554 174.108V153.717L84.6712 148.236Z" stroke="#92FBFB" stroke-width="3"/>
<path d="M72.2455 186.341L85.4795 191.793V212.244L72.2447 217.898L57.8296 212.214V191.823L72.2455 186.341Z" stroke="#92FBFB" stroke-width="3"/>
<path d="M84.5739 129.987L95.4199 133.923V148.401L84.5733 152.483L72.7403 148.372V133.951L84.5739 129.987Z" stroke="#71E7D6" stroke-width="3"/>
<path d="M47.2971 108.449L58.1431 112.385V126.863L47.2964 130.945L35.4634 126.834V112.413L47.2971 108.449Z" stroke="#71E7D6" stroke-width="3"/>
<path d="M104.455 76.1368L115.301 79.9457V93.8656L104.455 97.8158L92.6211 93.8375V79.9732L104.455 76.1368Z" stroke="#71E7D6" stroke-width="3"/>
<path d="M32.3864 97.6801L43.2324 101.616V116.094L32.3858 120.176L20.5528 116.065V101.644L32.3864 97.6801Z" stroke="#71E7D6" stroke-width="3"/>
<path d="M47.3939 162.318L60.6279 167.77V188.221L47.3932 193.875L32.978 188.191V167.8L47.3939 162.318Z" stroke="#92FBFB" stroke-width="3"/>
<path d="M67.2752 88.5926L80.5093 94.0442V114.496L67.2745 120.15L52.8594 114.465V94.0743L67.2752 88.5926Z" stroke="#92FBFB" stroke-width="3"/>
<path d="M106.109 114.271L116.958 118.716V135.422L106.109 140.032L94.2779 135.392V118.746L106.109 114.271Z" stroke="#92FBFB" stroke-width="3"/>
<path d="M35.2661 79.4866L45.7173 83.9115V100.643L35.2653 105.232L23.866 100.612L23.866 83.942L35.2661 79.4866Z" stroke="#1FFFFF" stroke-width="3"/>
<path d="M92.0267 52.1492L102.875 56.7212V73.9838L92.026 78.7256L80.1959 73.953V56.7516L92.0267 52.1492Z" stroke="#1FFFFF" stroke-width="3"/>
<path d="M22.8408 63.7475L33.292 68.1724V84.9042L22.8401 89.4933L11.4407 84.8733L11.4407 68.2028L22.8408 63.7475Z" stroke="#92FBFB" stroke-width="3"/>
<path d="M41.496 48.0011L52.3442 52.4459V69.1523L41.4953 73.762L29.6646 69.1218L29.6646 52.4758L41.496 48.0011Z" stroke="#92FBFB" stroke-width="3"/>
<path d="M118.103 50.4935L128.555 54.9184V71.6502L118.103 76.2393L106.703 71.6192V54.9488L118.103 50.4935Z" stroke="#92FBFB" stroke-width="3"/>
<path d="M59.5214 63.7458L65.5986 66.2995V76.0777L59.5207 78.7263L52.8595 76.0469V66.3298L59.5214 63.7458Z" stroke="#92FBFB" stroke-width="3"/>
<path d="M26.8836 18.1822L44.8892 25.6499V53.5889L26.8828 61.3335L7.29877 53.5582V25.6801L26.8836 18.1822Z" stroke="#92FBFB" stroke-width="3"/>
<path d="M36.4267 1.61029L54.8296 9.09016V37.0135L36.426 44.7707L16.4108 36.9832V9.11999L36.4267 1.61029Z" stroke="#1FFFFF" stroke-width="3"/>
</svg>
