<svg width="298" height="733" viewBox="0 0 298 733" fill="none" xmlns="http://www.w3.org/2000/svg">
<path d="M137 657.335V628.948L158.12 621L181 628.948V657.335L158.12 665L137 657.335Z" fill="#92FBFB"/>
<path d="M271 627.632V581.826L305.08 569L342 581.826V627.632L305.08 640L271 627.632Z" fill="#1FFFFF"/>
<path d="M190 677.632V631.826L224.56 619L262 631.826V677.632L224.56 690L190 677.632Z" fill="#1FFFFF"/>
<path d="M80 482.046L80 517.649L107.641 530L134 517.649V482.046L107.641 470L80 482.046Z" fill="#71E7D6"/>
<path d="M283 661.436V689.325L304.498 699L325 689.325V661.436L304.498 652L283 661.436Z" fill="#71E7D6"/>
<path d="M99 585.071V548.297L125.88 538L155 548.297V585.071L125.88 595L99 585.071Z" fill="#1FFFFF"/>
<path d="M83 561.245V525.116L109.88 515L139 525.116V561.245L109.88 571L83 561.245Z" fill="#1FFFFF"/>
<path d="M166 407.245V371.116L192.88 361L222 371.116V407.245L192.88 417L166 407.245Z" fill="#1FFFFF"/>
<path d="M254 369.948V351.239L267.44 346L282 351.239V369.948L267.44 375L254 369.948Z" fill="#92FBFB"/>
<path d="M201 281.258V326.356L235.295 342L268 326.356V281.258L235.295 266L201 281.258Z" fill="#71E7D6"/>
<path d="M266 394.057V438.562L300.295 454L333 438.562V394.057L300.295 379L266 394.057Z" fill="#71E7D6"/>
<path d="M50 598.258L50 643.356L84.2949 659L117 643.356L117 598.258L84.2949 583L50 598.258Z" fill="#71E7D6"/>
<path d="M171 469.258V514.356L205.295 530L238 514.356V469.258L205.295 454L171 469.258Z" fill="#71E7D6"/>
<path d="M162 596.258V641.356L196.295 657L229 641.356V596.258L196.295 581L162 596.258Z" fill="#71E7D6"/>
<path d="M187 407.247V443.443L214.641 456L241 443.443V407.247L214.641 395L187 407.247Z" fill="#71E7D6"/>
<path d="M241 78.0267V98.7954L256.356 106L271 98.7954V78.0267L256.356 71L241 78.0267Z" fill="#92FBFB"/>
<path d="M286 125.819V110.335L295.6 106L306 110.335V125.819L295.6 130L286 125.819Z" fill="#92FBFB"/>
<path d="M117 301.555V277.684L131.88 271L148 277.684V301.555L131.88 308L117 301.555Z" fill="#92FBFB"/>
<path d="M234 228.948V210.239L247.44 205L262 210.239V228.948L247.44 234L234 228.948Z" fill="#92FBFB"/>
<path d="M171 184.387V174.71L178.2 172L186 174.71V184.387L178.2 187L171 184.387Z" fill="#92FBFB"/>
<path d="M151 501.123V483.058L164.44 478L179 483.058V501.123L164.44 506L151 501.123Z" fill="#1FFFFF"/>
<path d="M292 521.948V503.239L305.92 498L321 503.239V521.948L305.92 527L292 521.948Z" fill="#1FFFFF"/>
<path d="M227 494.245V458.116L253.88 448L283 458.116V494.245L253.88 504L227 494.245Z" fill="#1FFFFF"/>
<path d="M98 612.245V576.116L124.88 566L154 576.116V612.245L124.88 622L98 612.245Z" fill="#1FFFFF"/>
<path d="M124 484.335V455.948L145.12 448L168 455.948V484.335L145.12 492L124 484.335Z" fill="#92FBFB"/>
<path d="M218 648.335V619.948L239.12 612L262 619.948V648.335L239.12 656L218 648.335Z" fill="#92FBFB"/>
<path d="M146 563.51V535.768L166.64 528L189 535.768V563.51L166.64 571L146 563.51Z" fill="#92FBFB"/>
<path d="M222 558.335V529.948L243.12 522L266 529.948V558.335L243.12 566L222 558.335Z" fill="#92FBFB"/>
<path d="M296 9.90968V2.16774L300.8 0L306 2.16774V9.90968L300.8 12L296 9.90968Z" fill="#71E7D6"/>
<path d="M212 356.735V348.348L217.28 346L223 348.348V356.735L217.28 359L212 356.735Z" fill="#71E7D6"/>
<path d="M157 524.735V516.348L162.28 514L168 516.348V524.735L162.28 527L157 524.735Z" fill="#71E7D6"/>
<path d="M0 578.91L0 571.168L5.28 569L11 571.168V578.91L5.28 581L0 578.91Z" fill="#71E7D6"/>
<path d="M67 388.516V375.613L74.68 372L83 375.613V388.516L74.68 392L67 388.516Z" fill="#71E7D6"/>
<path d="M288 468.606V463.445L291.84 462L296 463.445V468.606L291.84 470L288 468.606Z" fill="#92FBFB"/>
<path d="M52 545.606V540.445L55.36 539L59 540.445V545.606L55.36 547L52 545.606Z" fill="#92FBFB"/>
<path d="M115 416.471V399.697L126.52 395L139 399.697V416.471L126.52 421L115 416.471Z" fill="#92FBFB"/>
<path d="M98 452.606V447.445L101.36 446L105 447.445V452.606L101.36 454L98 452.606Z" fill="#92FBFB"/>
<path d="M12 485.039V474.071L19.2 471L27 474.071V485.039L19.2 488L12 485.039Z" fill="#92FBFB"/>
<path d="M270 25.6065V20.4452L273.36 19L277 20.4452V25.6065L273.36 27L270 25.6065Z" fill="#92FBFB"/>
<path d="M220 381.606V376.445L223.36 375L227 376.445V381.606L223.36 383L220 381.606Z" fill="#92FBFB"/>
<path d="M259.067 88.2845C257.209 87.5057 256 85.6879 256 83.6733V49.6929C256 47.7022 257.181 45.9012 259.007 45.1075L279.955 36.0005C281.181 35.4675 282.569 35.4477 283.81 35.9456L306.862 45.1964C308.758 45.9571 310 47.7943 310 49.8367V83.532C310 85.5971 308.73 87.4497 306.804 88.195L283.749 97.1167C282.543 97.5833 281.204 97.5647 280.012 97.0649L259.067 88.2845Z" stroke="#71E7D6" stroke-width="4"/>
<path d="M262.575 146.924L253 142.976V128.176L262.575 124.081L273 128.196V142.956L262.575 146.924Z" stroke="#71E7D6" stroke-width="2"/>
<path d="M288.095 190.917L279 186.988V172.164L288.096 168.089L298 172.185V186.967L288.095 190.917Z" stroke="#92FBFB" stroke-width="2"/>
<path d="M276.342 232.387L249.5 221.325V180.093L276.343 168.621L305.5 180.124V221.295L276.342 232.387Z" stroke="#71E7D6" stroke-width="3"/>
<path d="M292.342 273.383L265.5 262.156V220.268L292.343 208.625L321.5 220.299V262.126L292.342 273.383Z" stroke="#92FBFB" stroke-width="3"/>
<path d="M268.862 315.383L242.5 304.331V263.087L268.863 251.626L297.5 263.118V304.301L268.862 315.383Z" stroke="#92FBFB" stroke-width="3"/>
<path d="M290.342 369.387L263.5 358.325V317.093L290.343 305.621L319.5 317.124V358.295L290.342 369.387Z" stroke="#92FBFB" stroke-width="3"/>
<path d="M177.862 448.383L151.5 437.331V396.087L177.863 384.626L206.5 396.118V437.301L177.862 448.383Z" stroke="#92FBFB" stroke-width="3"/>
<path d="M178.54 483.411L156.5 475.413V445.89L178.54 437.595L202.5 445.918V475.385L178.54 483.411Z" stroke="#71E7D6" stroke-width="3"/>
<path d="M250.54 525.411L228.5 517.413V487.89L250.54 479.595L274.5 487.918V517.385L250.54 525.411Z" stroke="#71E7D6" stroke-width="3"/>
<path d="M139.539 586.418L117.5 578.747V550.544L139.54 542.588L163.5 550.572V578.719L139.539 586.418Z" stroke="#71E7D6" stroke-width="3"/>
<path d="M279.54 545.411L257.5 537.413V507.89L279.54 499.595L303.5 507.918V537.385L279.54 545.411Z" stroke="#71E7D6" stroke-width="3"/>
<path d="M250.342 421.383L223.5 410.156V368.268L250.343 356.625L279.5 368.299V410.126L250.342 421.383Z" stroke="#92FBFB" stroke-width="3"/>
<path d="M211.863 564.38L185.5 553.163V511.262L211.863 499.629L240.5 511.293V553.132L211.863 564.38Z" stroke="#92FBFB" stroke-width="3"/>
<path d="M136.542 514.385L114.5 505.243V471.104L136.543 461.623L160.5 471.134V505.213L136.542 514.385Z" stroke="#92FBFB" stroke-width="3"/>
<path d="M273.542 581.385L251.5 572.243V538.104L273.543 528.623L297.5 538.134V572.213L273.542 581.385Z" stroke="#1FFFFF" stroke-width="3"/>
<path d="M163.542 633.385L141.5 624.243V590.104L163.543 580.623L187.5 590.134V624.213L163.542 633.385Z" stroke="#1FFFFF" stroke-width="3"/>
<path d="M297.542 610.385L275.5 601.243V567.104L297.543 557.623L321.5 567.134V601.213L297.542 610.385Z" stroke="#92FBFB" stroke-width="3"/>
<path d="M261.543 642.381L239.5 633.076V598.278L261.543 588.627L285.5 598.308V633.046L261.543 642.381Z" stroke="#92FBFB" stroke-width="3"/>
<path d="M113.542 637.385L91.5 628.243V594.104L113.543 584.623L137.5 594.134V628.213L113.542 637.385Z" stroke="#92FBFB" stroke-width="3"/>
<path d="M226.422 610.387L213.5 605.072V585.133L226.423 579.621L240.5 585.163V605.042L226.422 610.387Z" stroke="#92FBFB" stroke-width="3"/>
<path d="M290.462 699.383L254.5 684.324V628.242L290.463 612.625L329.5 628.273V684.294L290.462 699.383Z" stroke="#92FBFB" stroke-width="3"/>
<path d="M271.462 731.383L235.5 716.324V660.242L271.463 644.625L310.5 660.273V716.294L271.462 731.383Z" stroke="#1FFFFF" stroke-width="3"/>
</svg>
