<svg width="299" height="733" viewBox="0 0 299 733" fill="none" xmlns="http://www.w3.org/2000/svg">
<path d="M137 75.6645V104.052L158.12 112L181 104.052V75.6645L158.12 68L137 75.6645Z" fill="#92FBFB"/>
<path d="M271 105.368V151.174L305.08 164L342 151.174V105.368L305.08 93L271 105.368Z" fill="#1FFFFF"/>
<path d="M190 55.3677V101.174L224.56 114L262 101.174V55.3677L224.56 43L190 55.3677Z" fill="#1FFFFF"/>
<path d="M80 250.954L80 215.351L107.641 203L134 215.351V250.954L107.641 263L80 250.954Z" fill="#71E7D6"/>
<path d="M283 71.5642V43.6747L304.498 34L325 43.6747V71.5642L304.498 81L283 71.5642Z" fill="#71E7D6"/>
<path d="M99 147.929V184.703L125.88 195L155 184.703V147.929L125.88 138L99 147.929Z" fill="#1FFFFF"/>
<path d="M83 171.755V207.884L109.88 218L139 207.884V171.755L109.88 162L83 171.755Z" fill="#1FFFFF"/>
<path d="M166 325.755V361.884L192.88 372L222 361.884V325.755L192.88 316L166 325.755Z" fill="#1FFFFF"/>
<path d="M254 363.052V381.761L267.44 387L282 381.761V363.052L267.44 358L254 363.052Z" fill="#92FBFB"/>
<path d="M201 451.742V406.644L235.295 391L268 406.644V451.742L235.295 467L201 451.742Z" fill="#71E7D6"/>
<path d="M266 338.943V294.438L300.295 279L333 294.438V338.943L300.295 354L266 338.943Z" fill="#71E7D6"/>
<path d="M50 134.742L50 89.6442L84.2949 74L117 89.6442L117 134.742L84.2949 150L50 134.742Z" fill="#71E7D6"/>
<path d="M171 263.742V218.644L205.295 203L238 218.644V263.742L205.295 279L171 263.742Z" fill="#71E7D6"/>
<path d="M162 136.742V91.6442L196.295 76L229 91.6442V136.742L196.295 152L162 136.742Z" fill="#71E7D6"/>
<path d="M187 325.753V289.557L214.641 277L241 289.557V325.753L214.641 338L187 325.753Z" fill="#71E7D6"/>
<path d="M241 654.973V634.205L256.356 627L271 634.205V654.973L256.356 662L241 654.973Z" fill="#92FBFB"/>
<path d="M286 607.181V622.665L295.6 627L306 622.665V607.181L295.6 603L286 607.181Z" fill="#92FBFB"/>
<path d="M117 431.445V455.316L131.88 462L148 455.316V431.445L131.88 425L117 431.445Z" fill="#92FBFB"/>
<path d="M234 504.052V522.761L247.44 528L262 522.761V504.052L247.44 499L234 504.052Z" fill="#92FBFB"/>
<path d="M171 548.613V558.29L178.2 561L186 558.29V548.613L178.2 546L171 548.613Z" fill="#92FBFB"/>
<path d="M151 231.877V249.942L164.44 255L179 249.942V231.877L164.44 227L151 231.877Z" fill="#1FFFFF"/>
<path d="M292 211.052V229.761L305.92 235L321 229.761V211.052L305.92 206L292 211.052Z" fill="#1FFFFF"/>
<path d="M227 238.755V274.884L253.88 285L283 274.884V238.755L253.88 229L227 238.755Z" fill="#1FFFFF"/>
<path d="M98 120.755V156.884L124.88 167L154 156.884V120.755L124.88 111L98 120.755Z" fill="#1FFFFF"/>
<path d="M124 248.665V277.052L145.12 285L168 277.052V248.665L145.12 241L124 248.665Z" fill="#92FBFB"/>
<path d="M218 84.6645V113.052L239.12 121L262 113.052V84.6645L239.12 77L218 84.6645Z" fill="#92FBFB"/>
<path d="M146 169.49V197.232L166.64 205L189 197.232V169.49L166.64 162L146 169.49Z" fill="#92FBFB"/>
<path d="M222 174.665V203.052L243.12 211L266 203.052V174.665L243.12 167L222 174.665Z" fill="#92FBFB"/>
<path d="M296 723.09V730.832L300.8 733L306 730.832V723.09L300.8 721L296 723.09Z" fill="#71E7D6"/>
<path d="M212 376.265V384.652L217.28 387L223 384.652V376.265L217.28 374L212 376.265Z" fill="#71E7D6"/>
<path d="M157 208.265V216.652L162.28 219L168 216.652V208.265L162.28 206L157 208.265Z" fill="#71E7D6"/>
<path d="M0 154.09L0 161.832L5.28 164L11 161.832V154.09L5.28 152L0 154.09Z" fill="#71E7D6"/>
<path d="M67 344.484V357.387L74.68 361L83 357.387V344.484L74.68 341L67 344.484Z" fill="#71E7D6"/>
<path d="M288 264.394V269.555L291.84 271L296 269.555V264.394L291.84 263L288 264.394Z" fill="#92FBFB"/>
<path d="M52 187.394V192.555L55.36 194L59 192.555V187.394L55.36 186L52 187.394Z" fill="#92FBFB"/>
<path d="M115 316.529V333.303L126.52 338L139 333.303V316.529L126.52 312L115 316.529Z" fill="#92FBFB"/>
<path d="M98 280.394V285.555L101.36 287L105 285.555V280.394L101.36 279L98 280.394Z" fill="#92FBFB"/>
<path d="M12 247.961V258.929L19.2 262L27 258.929V247.961L19.2 245L12 247.961Z" fill="#92FBFB"/>
<path d="M270 707.394V712.555L273.36 714L277 712.555V707.394L273.36 706L270 707.394Z" fill="#92FBFB"/>
<path d="M220 351.394V356.555L223.36 358L227 356.555V351.394L223.36 350L220 351.394Z" fill="#92FBFB"/>
<path d="M259.067 644.715C257.209 645.494 256 647.312 256 649.327V683.307C256 685.298 257.181 687.099 259.007 687.892L279.955 696.999C281.181 697.533 282.569 697.552 283.81 697.054L306.862 687.804C308.758 687.043 310 685.206 310 683.163V649.468C310 647.403 308.73 645.55 306.804 644.805L283.749 635.883C282.543 635.417 281.204 635.435 280.012 635.935L259.067 644.715Z" stroke="#71E7D6" stroke-width="4"/>
<path d="M262.575 586.076L253 590.024V604.824L262.575 608.919L273 604.804V590.044L262.575 586.076Z" stroke="#71E7D6" stroke-width="2"/>
<path d="M288.095 542.083L279 546.012V560.836L288.096 564.911L298 560.815V546.033L288.095 542.083Z" stroke="#92FBFB" stroke-width="2"/>
<path d="M276.342 500.613L249.5 511.675V552.907L276.343 564.379L305.5 552.876V511.705L276.342 500.613Z" stroke="#71E7D6" stroke-width="3"/>
<path d="M292.342 459.617L265.5 470.844V512.732L292.343 524.375L321.5 512.701V470.874L292.342 459.617Z" stroke="#92FBFB" stroke-width="3"/>
<path d="M268.862 417.617L242.5 428.669V469.913L268.863 481.374L297.5 469.882V428.699L268.862 417.617Z" stroke="#92FBFB" stroke-width="3"/>
<path d="M290.342 363.613L263.5 374.675V415.907L290.343 427.379L319.5 415.876V374.705L290.342 363.613Z" stroke="#92FBFB" stroke-width="3"/>
<path d="M177.862 284.617L151.5 295.669V336.913L177.863 348.374L206.5 336.882V295.699L177.862 284.617Z" stroke="#92FBFB" stroke-width="3"/>
<path d="M178.54 249.589L156.5 257.587V287.11L178.54 295.405L202.5 287.082V257.615L178.54 249.589Z" stroke="#71E7D6" stroke-width="3"/>
<path d="M250.54 207.589L228.5 215.587V245.11L250.54 253.405L274.5 245.082V215.615L250.54 207.589Z" stroke="#71E7D6" stroke-width="3"/>
<path d="M139.539 146.582L117.5 154.253V182.456L139.54 190.412L163.5 182.428V154.281L139.539 146.582Z" stroke="#71E7D6" stroke-width="3"/>
<path d="M279.54 187.589L257.5 195.587V225.11L279.54 233.405L303.5 225.082V195.615L279.54 187.589Z" stroke="#71E7D6" stroke-width="3"/>
<path d="M250.342 311.617L223.5 322.844V364.732L250.343 376.375L279.5 364.701V322.874L250.342 311.617Z" stroke="#92FBFB" stroke-width="3"/>
<path d="M211.863 168.62L185.5 179.837V221.738L211.863 233.371L240.5 221.707V179.868L211.863 168.62Z" stroke="#92FBFB" stroke-width="3"/>
<path d="M136.542 218.615L114.5 227.757V261.896L136.543 271.377L160.5 261.866V227.787L136.542 218.615Z" stroke="#92FBFB" stroke-width="3"/>
<path d="M273.542 151.615L251.5 160.757V194.896L273.543 204.377L297.5 194.866V160.787L273.542 151.615Z" stroke="#1FFFFF" stroke-width="3"/>
<path d="M163.542 99.6147L141.5 108.757V142.896L163.543 152.377L187.5 142.866V108.787L163.542 99.6147Z" stroke="#1FFFFF" stroke-width="3"/>
<path d="M297.542 122.615L275.5 131.757V165.896L297.543 175.377L321.5 165.866V131.787L297.542 122.615Z" stroke="#92FBFB" stroke-width="3"/>
<path d="M261.543 90.6187L239.5 99.924V134.722L261.543 144.373L285.5 134.692V99.9544L261.543 90.6187Z" stroke="#92FBFB" stroke-width="3"/>
<path d="M113.542 95.6147L91.5 104.757V138.896L113.543 148.377L137.5 138.866V104.787L113.542 95.6147Z" stroke="#92FBFB" stroke-width="3"/>
<path d="M226.422 122.613L213.5 127.928V147.867L226.423 153.379L240.5 147.837V127.958L226.422 122.613Z" stroke="#92FBFB" stroke-width="3"/>
<path d="M290.462 33.6168L254.5 48.6755V104.758L290.463 120.375L329.5 104.727V48.7058L290.462 33.6168Z" stroke="#92FBFB" stroke-width="3"/>
<path d="M271.462 1.61681L235.5 16.6755V72.758L271.463 88.3747L310.5 72.7272V16.7058L271.462 1.61681Z" stroke="#1FFFFF" stroke-width="3"/>
</svg>
