<svg width="214" height="458" viewBox="0 0 214 458" fill="none" xmlns="http://www.w3.org/2000/svg">
<path d="M128 46.8774V64.9419L114.56 70L100 64.9419V46.8774L114.56 42L128 46.8774Z" fill="#92FBFB"/>
<path d="M45 65.8387V94.871L23.4 103L0 94.871V65.8387L23.4 58L45 65.8387Z" fill="#1FFFFF"/>
<path d="M95 34.6645V63.0516L73.4 71L50 63.0516V34.6645L73.4 27L95 34.6645Z" fill="#1FFFFF"/>
<path d="M163 157.371V134.822L146.108 127L130 134.822V157.371L146.108 165L163 157.371Z" fill="#71E7D6"/>
<path d="M37 44.9771L37 27.1753L23.6915 21L11 27.1753L11 44.9771L23.6915 51L37 44.9771Z" fill="#71E7D6"/>
<path d="M152 92.271V115.497L135.2 122L117 115.497V92.271L135.2 86L152 92.271Z" fill="#1FFFFF"/>
<path d="M162 107.097V129.677L145.2 136L127 129.677V107.097L145.2 101L162 107.097Z" fill="#1FFFFF"/>
<path d="M110 203.271V226.497L93.2 233L75 226.497V203.271L93.2 197L110 203.271Z" fill="#1FFFFF"/>
<path d="M55 227.135V238.748L46.36 242L37 238.748V227.135L46.36 224L55 227.135Z" fill="#92FBFB"/>
<path d="M88 282.363V253.881L66.5017 244L46 253.881L46 282.363L66.5017 292L88 282.363Z" fill="#71E7D6"/>
<path d="M47 211.564L47 183.675L26.0136 174L6 183.675L6 211.564L26.0136 221L47 211.564Z" fill="#71E7D6"/>
<path d="M182 84.3634V55.8806L161.014 46L141 55.8806V84.3634L161.014 94L182 84.3634Z" fill="#71E7D6"/>
<path d="M107 164.564V136.675L85.5017 127L65 136.675V164.564L85.5017 174L107 164.564Z" fill="#71E7D6"/>
<path d="M112 85.3634V56.8806L90.5017 47L70 56.8806V85.3634L90.5017 95L112 85.3634Z" fill="#71E7D6"/>
<path d="M97 203.371V180.822L79.5966 173L63 180.822L63 203.371L79.5966 211L97 203.371Z" fill="#71E7D6"/>
<path d="M63 408.784V396.323L53.2746 392L44 396.323V408.784L53.2746 413L63 408.784Z" fill="#92FBFB"/>
<path d="M35 379.613V389.29L28.76 392L22 389.29V379.613L28.76 377L35 379.613Z" fill="#92FBFB"/>
<path d="M141 269.832V284.026L131.4 288L121 284.026V269.832L131.4 266L141 269.832Z" fill="#92FBFB"/>
<path d="M68 315.135V326.748L59.36 330L50 326.748V315.135L59.36 312L68 315.135Z" fill="#92FBFB"/>
<path d="M107 342.568V348.374L102.68 350L98 348.374V342.568L102.68 341L107 342.568Z" fill="#92FBFB"/>
<path d="M104 294.568V300.374L99.68 302L95 300.374V294.568L99.68 293L104 294.568Z" fill="#92FBFB"/>
<path d="M119 145.135V156.748L110.84 160L102 156.748V145.135L110.84 142L119 145.135Z" fill="#1FFFFF"/>
<path d="M31 132.135V143.748L22.36 147L13 143.748V132.135L22.36 129L31 132.135Z" fill="#1FFFFF"/>
<path d="M72 149.097V171.677L55.2 178L37 171.677V149.097L55.2 143L72 149.097Z" fill="#1FFFFF"/>
<path d="M152 75.0968V97.6774L135.2 104L117 97.6774V75.0968L135.2 69L152 75.0968Z" fill="#1FFFFF"/>
<path d="M136 155.703V173.123L123.04 178L109 173.123V155.703L123.04 151L136 155.703Z" fill="#92FBFB"/>
<path d="M78 52.7032V70.1226L64.56 75L50 70.1226V52.7032L64.56 48L78 52.7032Z" fill="#92FBFB"/>
<path d="M123 105.703V123.123L109.56 128L95 123.123V105.703L109.56 101L123 105.703Z" fill="#92FBFB"/>
<path d="M75 108.877V126.942L61.56 132L47 126.942V108.877L61.56 104L75 108.877Z" fill="#92FBFB"/>
<path d="M29 451.394V456.555L25.64 458L22 456.555V451.394L25.64 450L29 451.394Z" fill="#71E7D6"/>
<path d="M81 235.394V240.555L77.64 242L74 240.555V235.394L77.64 234L81 235.394Z" fill="#71E7D6"/>
<path d="M25 154.394V159.555L21.64 161L18 159.555V154.394L21.64 153L25 154.394Z" fill="#71E7D6"/>
<path d="M115 130.394V135.555L112.12 137L109 135.555V130.394L112.12 129L115 130.394Z" fill="#71E7D6"/>
<path d="M214 96.3935V101.555L210.64 103L207 101.555V96.3935L210.64 95L214 96.3935Z" fill="#71E7D6"/>
<path d="M172 215.09V222.832L167.2 225L162 222.832V215.09L167.2 213L172 215.09Z" fill="#71E7D6"/>
<path d="M139 232.09V239.832L134.2 242L129 239.832V232.09L134.2 230L139 232.09Z" fill="#71E7D6"/>
<path d="M33 165.871V169.097L31.08 170L29 169.097V165.871L31.08 165L33 165.871Z" fill="#92FBFB"/>
<path d="M181 116.871V120.097L179.08 121L177 120.097V116.871L179.08 116L181 116.871Z" fill="#92FBFB"/>
<path d="M142 197.787V208.11L134.8 211L127 208.11V197.787L134.8 195L142 197.787Z" fill="#92FBFB"/>
<path d="M152 174.871V178.097L150.08 179L148 178.097V174.871L150.08 174L152 174.871Z" fill="#92FBFB"/>
<path d="M206 154.742V161.194L201.68 163L197 161.194V154.742L201.68 153L206 154.742Z" fill="#92FBFB"/>
<path d="M45 441.871V445.097L42.6 446L40 445.097V441.871L42.6 441L45 441.871Z" fill="#92FBFB"/>
<path d="M76 219.871V223.097L74.08 224L72 223.097V219.871L74.08 219L76 219.871Z" fill="#92FBFB"/>
<path d="M49.9098 403.202C51.7801 403.975 53 405.799 53 407.823V424.978C53 426.978 51.8081 428.786 49.9698 429.574L39.5831 434.025C38.3702 434.545 37.0009 434.565 35.7738 434.079L24.1605 429.484C22.253 428.73 21 426.886 21 424.835V407.963C21 405.89 22.2802 404.031 24.2177 403.292L35.8343 398.86C37.0264 398.405 38.3473 398.423 39.5264 398.911L49.9098 403.202Z" stroke="#71E7D6" stroke-width="4"/>
<path d="M49.7442 366.088L55 368.436V377.471L49.7437 379.905L44 377.45V368.456L49.7442 366.088Z" stroke="#71E7D6" stroke-width="2"/>
<path d="M33.7442 339.088L39 341.436V350.471L33.7437 352.905L28 350.45V341.456L33.7442 339.088Z" stroke="#92FBFB" stroke-width="2"/>
<path d="M41.2179 313.613L57.5 320.321V345.423L41.2172 352.379L23.5 345.392V320.351L41.2179 313.613Z" stroke="#71E7D6" stroke-width="3"/>
<path d="M31.2175 287.618L47.5 294.486V320.251L31.2167 327.373L13.5 320.22V294.516L31.2175 287.618Z" stroke="#92FBFB" stroke-width="3"/>
<path d="M45.6974 261.619L61.5 268.31V293.433L45.6967 300.372L28.5 293.402V268.34L45.6974 261.619Z" stroke="#92FBFB" stroke-width="3"/>
<path d="M32.2179 227.613L48.5 234.321V259.423L32.2172 266.379L14.5 259.392V234.351L32.2179 227.613Z" stroke="#92FBFB" stroke-width="3"/>
<path d="M102.218 178.613L118.5 185.321V210.423L102.217 217.379L84.5 210.392V185.351L102.218 178.613Z" stroke="#92FBFB" stroke-width="3"/>
<path d="M87.2179 224.613L103.5 231.321V256.423L87.2172 263.379L69.5 256.392V231.351L87.2179 224.613Z" stroke="#92FBFB" stroke-width="3"/>
<path d="M102.1 156.589L115.5 161.451V179.362L102.1 184.405L87.5 179.333V161.479L102.1 156.589Z" stroke="#71E7D6" stroke-width="3"/>
<path d="M57.1002 130.589L70.5 135.451V153.362L57.0996 158.405L42.5 153.333V135.479L57.1002 130.589Z" stroke="#71E7D6" stroke-width="3"/>
<path d="M126.101 91.5831L139.5 96.2888V113.531L126.1 118.411L111.5 113.502V96.3164L126.101 91.5831Z" stroke="#71E7D6" stroke-width="3"/>
<path d="M39.1002 117.589L52.5 122.451V140.362L39.0996 145.405L24.5 140.333L24.5 122.479L39.1002 117.589Z" stroke="#71E7D6" stroke-width="3"/>
<path d="M57.2179 195.613L73.5 202.321V227.423L57.2172 234.379L39.5 227.392V202.351L57.2179 195.613Z" stroke="#92FBFB" stroke-width="3"/>
<path d="M81.2179 106.613L97.5 113.321V138.423L81.2172 145.379L63.5 138.392V113.351L81.2179 106.613Z" stroke="#92FBFB" stroke-width="3"/>
<path d="M128.098 137.612L141.5 143.103V163.685L128.097 169.38L113.5 163.654V143.133L128.098 137.612Z" stroke="#92FBFB" stroke-width="3"/>
<path d="M42.5774 95.6193L55.5 101.091V121.698L42.5767 127.372L28.5 121.667L28.5 101.121L42.5774 95.6193Z" stroke="#1FFFFF" stroke-width="3"/>
<path d="M111.097 62.6183L124.5 68.2666V89.5153L111.097 95.3732L96.5 89.4844V68.2969L111.097 62.6183Z" stroke="#1FFFFF" stroke-width="3"/>
<path d="M27.5774 76.6193L40.5 82.0906V102.698L27.5767 108.372L13.5 102.667L13.5 82.121L27.5774 76.6193Z" stroke="#92FBFB" stroke-width="3"/>
<path d="M50.098 57.612L63.5 63.1032V83.685L50.0973 89.3798L35.5 83.6545V63.1332L50.098 57.612Z" stroke="#92FBFB" stroke-width="3"/>
<path d="M142.577 60.6193L155.5 66.0906V86.6978L142.577 92.372L128.5 86.6668V66.121L142.577 60.6193Z" stroke="#92FBFB" stroke-width="3"/>
<path d="M71.8575 76.6176L79.5 79.829V92.0432L71.8568 95.3739L63.5 92.0124V79.8593L71.8575 76.6176Z" stroke="#92FBFB" stroke-width="3"/>
<path d="M32.4578 21.6147L54.5 30.7566L54.5 64.8962L32.4571 74.377L8.5 64.8655L8.5 30.7867L32.4578 21.6147Z" stroke="#92FBFB" stroke-width="3"/>
<path d="M43.9782 1.61029L66.5 10.7643V44.8883L43.9775 54.3817L19.5 44.858L19.5 10.7942L43.9782 1.61029Z" stroke="#1FFFFF" stroke-width="3"/>
</svg>
