<svg width="354" height="821" viewBox="0 0 354 821" fill="none" xmlns="http://www.w3.org/2000/svg">
<path d="M269.537 87.5079V110.372L286.921 118.303L303.5 110.372V87.5079L286.921 79.7723L269.537 87.5079Z" fill="#92FBFB"/>
<path d="M320 141.297V123.877L331.04 119L343 123.877V141.297L331.04 146L320 141.297Z" fill="#92FBFB"/>
<path d="M131 337.858V311.406L147.8 304L166 311.406V337.858L147.8 345L131 337.858Z" fill="#92FBFB"/>
<path d="M262 256.426V235.781L277.36 230L294 235.781V256.426L277.36 262L262 256.426Z" fill="#92FBFB"/>
<path d="M192 206.213V195.89L199.68 193L208 195.89V206.213L199.68 209L192 206.213Z" fill="#92FBFB"/>
<path d="M169 561.426V540.781L184.36 535L201 540.781V561.426L184.36 567L169 561.426Z" fill="#1FFFFF"/>
<path d="M327 584.426V563.781L342.36 558L359 563.781V584.426L342.36 590L327 584.426Z" fill="#1FFFFF"/>
<path d="M254 554.026V513.381L284.24 502L317 513.381V554.026L284.24 565L254 554.026Z" fill="#1FFFFF"/>
<path d="M110 686.026V645.381L140.24 634L173 645.381V686.026L140.24 697L110 686.026Z" fill="#1FFFFF"/>
<path d="M139 542.465V510.852L162.52 502L188 510.852V542.465L162.52 551L139 542.465Z" fill="#92FBFB"/>
<path d="M244 726.465V694.852L267.52 686L293 694.852V726.465L267.52 735L244 726.465Z" fill="#92FBFB"/>
<path d="M163 631.465V599.852L186.52 591L212 599.852V631.465L186.52 640L163 631.465Z" fill="#92FBFB"/>
<path d="M249 625.465V593.852L272.52 585L298 593.852V625.465L272.52 634L249 625.465Z" fill="#92FBFB"/>
<path d="M331 11.5613V2.52903L336.76 0L343 2.52903V11.5613L336.76 14L331 11.5613Z" fill="#71E7D6"/>
<path d="M238 399.561V390.529L243.76 388L250 390.529V399.561L243.76 402L238 399.561Z" fill="#71E7D6"/>
<path d="M338 544.561V535.529L343.76 533L350 535.529V544.561L343.76 547L338 544.561Z" fill="#71E7D6"/>
<path d="M176 587.561V578.529L181.76 576L188 578.529V587.561L181.76 590L176 587.561Z" fill="#71E7D6"/>
<path d="M0 648.561L0 639.529L5.76 637L12 639.529V648.561L5.76 651L0 648.561Z" fill="#71E7D6"/>
<path d="M75 435.168V420.974L83.64 417L93 420.974V435.168L83.64 439L75 435.168Z" fill="#71E7D6"/>
<path d="M323 524.432V518.626L326.84 517L331 518.626V524.432L326.84 526L323 524.432Z" fill="#92FBFB"/>
<path d="M58 611.432V605.626L61.84 604L66 605.626V611.432L61.84 613L58 611.432Z" fill="#92FBFB"/>
<path d="M129 466.774V447.419L141.96 442L156 447.419V466.774L141.96 472L129 466.774Z" fill="#92FBFB"/>
<path d="M110 507.432V501.626L113.84 500L118 501.626V507.432L113.84 509L110 507.432Z" fill="#92FBFB"/>
<path d="M13 543.69L13 531.432L21.16 528L30 531.432V543.69L21.16 547L13 543.69Z" fill="#92FBFB"/>
<path d="M302.5 28.9323V23.1258L306.34 21.5L310.5 23.1258V28.9323L306.34 30.5L302.5 28.9323Z" fill="#92FBFB"/>
<path d="M246 427.432V421.626L249.84 420L254 421.626V427.432L249.84 429L246 427.432Z" fill="#92FBFB"/>
<path d="M290.001 98.7171C288.143 97.9388 286.933 96.1205 286.933 94.1052V55.4642C286.933 53.4728 288.114 51.6712 289.941 50.878L313.929 40.4615C315.154 39.9295 316.541 39.9098 317.781 40.4067L344.126 50.9669C346.022 51.7271 347.266 53.5648 347.266 55.608V93.9639C347.266 96.0297 345.995 97.8828 344.068 98.6276L317.72 108.812C316.515 109.278 315.177 109.259 313.986 108.76L290.001 98.7171Z" stroke="#71E7D6" stroke-width="4"/>
<path d="M294.066 165.05L283.474 160.615V143.981L294.066 139.382L305.593 144.002V160.595L294.066 165.05Z" stroke="#71E7D6" stroke-width="2"/>
<path d="M322.592 213.752L312 209.317V192.684L322.593 188.084L334.119 192.704V209.297L322.592 213.752Z" stroke="#92FBFB" stroke-width="2"/>
<path d="M309.554 260.381L279.633 247.852V201.14L309.554 188.147L342.046 201.171V247.822L309.554 260.381Z" stroke="#71E7D6" stroke-width="3"/>
<path d="M327.421 305.86L297.5 293.331V246.618L327.421 233.625L359.913 246.649V293.301L327.421 305.86Z" stroke="#92FBFB" stroke-width="3"/>
<path d="M301.421 353.86L271.5 341.331V294.618L301.421 281.625L333.913 294.649V341.301L301.421 353.86Z" stroke="#92FBFB" stroke-width="3"/>
<path d="M325.421 413.86L295.5 401.331V354.618L325.421 341.625L357.913 354.649V401.301L325.421 413.86Z" stroke="#92FBFB" stroke-width="3"/>
<path d="M199.421 502.86L169.5 490.331V443.618L199.421 430.625L231.913 443.649V490.301L199.421 502.86Z" stroke="#92FBFB" stroke-width="3"/>
<path d="M200.42 541.411L175.5 532.368V498.974L200.42 489.595L227.5 499.002V532.34L200.42 541.411Z" stroke="#71E7D6" stroke-width="3"/>
<path d="M280.42 588.411L255.5 579.368V545.974L280.42 536.595L307.5 546.002V579.34L280.42 588.411Z" stroke="#71E7D6" stroke-width="3"/>
<path d="M156.419 657.418L131.5 648.703V616.626L156.42 607.588L183.5 616.654V648.676L156.419 657.418Z" stroke="#71E7D6" stroke-width="3"/>
<path d="M313.42 611.411L288.5 602.368V568.974L313.42 559.595L340.5 569.002V602.34L313.42 611.411Z" stroke="#71E7D6" stroke-width="3"/>
<path d="M280.421 471.86L250.5 459.331V412.618L280.421 399.625L312.913 412.649V459.301L280.421 471.86Z" stroke="#92FBFB" stroke-width="3"/>
<path d="M237.421 631.86L207.5 619.331V572.618L237.421 559.625L269.913 572.649V619.301L237.421 631.86Z" stroke="#92FBFB" stroke-width="3"/>
<path d="M153.422 576.385L128.5 566.025V527.367L153.423 516.624L180.5 527.398V565.995L153.422 576.385Z" stroke="#92FBFB" stroke-width="3"/>
<path d="M306.422 651.385L281.5 641.025V602.367L306.423 591.624L333.5 602.398V640.995L306.422 651.385Z" stroke="#1FFFFF" stroke-width="3"/>
<path d="M183.422 709.385L158.5 699.025V660.367L183.423 649.624L210.5 660.398V698.995L183.422 709.385Z" stroke="#1FFFFF" stroke-width="3"/>
<path d="M333.422 684.385L308.5 674.025V635.367L333.423 624.624L360.5 635.398V673.995L333.422 684.385Z" stroke="#92FBFB" stroke-width="3"/>
<path d="M293.422 719.385L268.5 709.025V670.367L293.423 659.624L320.5 670.398V708.995L293.422 719.385Z" stroke="#92FBFB" stroke-width="3"/>
<path d="M127.422 714.385L102.5 704.025V665.367L127.423 654.624L154.5 665.398V703.995L127.422 714.385Z" stroke="#92FBFB" stroke-width="3"/>
<path d="M253.342 684.385L238.5 678.206V655.031L253.343 648.624L269.5 655.062V678.176L253.342 684.385Z" stroke="#92FBFB" stroke-width="3"/>
<path d="M325.262 783.384L284.5 766.406V703.231L325.263 685.624L369.5 703.262V766.376L325.262 783.384Z" stroke="#92FBFB" stroke-width="3"/>
<path d="M304.262 819.384L263.5 802.406V739.231L304.263 721.624L348.5 739.262V802.376L304.262 819.384Z" stroke="#1FFFFF" stroke-width="3"/>
</svg>
