<svg width="154" height="362" viewBox="0 0 154 362" fill="none" xmlns="http://www.w3.org/2000/svg">
<path d="M71.2402 38.8321V53.7963L82.3736 57.9863L94.4347 53.7963V38.8321L82.3736 34.7917L71.2402 38.8321Z" fill="#92FBFB"/>
<path d="M139.995 54.5392V78.5888L157.888 85.3227L177.272 78.5888V54.5392L157.888 48.0458L139.995 54.5392Z" fill="#1FFFFF"/>
<path d="M98.5771 28.7152V52.2304L116.47 58.8146L135.854 52.2304V28.7152L116.47 22.3661L98.5771 28.7152Z" fill="#1FFFFF"/>
<path d="M42.2471 130.362V111.683L56.2396 105.204L69.5835 111.683V130.362L56.2396 136.682L42.2471 130.362Z" fill="#71E7D6"/>
<path d="M146.623 37.2579V22.5114L157.647 17.3959L168.161 22.5114V37.2579L157.647 42.2471L146.623 37.2579Z" fill="#71E7D6"/>
<path d="M51.3594 76.4349V95.6746L65.2761 101.062L80.3525 95.6746V76.4349L65.2761 71.2402L51.3594 76.4349Z" fill="#1FFFFF"/>
<path d="M43.0752 88.7163V107.422L56.9919 112.659L72.0683 107.422V88.7163L56.9919 83.6659L43.0752 88.7163Z" fill="#1FFFFF"/>
<path d="M86.1514 168.385V187.624L100.068 193.011L115.145 187.624V168.385L100.068 163.19L86.1514 168.385Z" fill="#1FFFFF"/>
<path d="M131.712 188.153V197.773L138.869 200.467L146.623 197.773V188.153L138.869 185.556L131.712 188.153Z" fill="#92FBFB"/>
<path d="M104.375 233.903V210.308L122.184 202.124L139.167 210.308V233.903L122.184 241.886L104.375 233.903Z" fill="#71E7D6"/>
<path d="M138.339 175.255V152.152L155.724 144.137L172.302 152.152V175.255L155.724 183.071L138.339 175.255Z" fill="#71E7D6"/>
<path d="M26.5078 69.8845L26.5078 46.29L43.8925 38.1052L60.4712 46.29V69.8845L43.8925 77.8672L26.5078 69.8845Z" fill="#71E7D6"/>
<path d="M88.6367 136.321V113.218L106.445 105.204L123.428 113.218V136.321L106.445 144.137L88.6367 136.321Z" fill="#71E7D6"/>
<path d="M84.4941 70.7129V47.1184L102.303 38.9336L119.286 47.1184V70.7129L102.303 78.6956L84.4941 70.7129Z" fill="#71E7D6"/>
<path d="M96.9199 168.468V149.789L111.336 143.309L125.085 149.789V168.468L111.336 174.787L96.9199 168.468Z" fill="#71E7D6"/>
<path d="M125.085 338.627V328.304L133.141 324.723L140.824 328.304V338.627L133.141 342.119L125.085 338.627Z" fill="#92FBFB"/>
<path d="M148.279 314.462V322.478L153.448 324.723L159.048 322.478V314.462L153.448 312.297L148.279 314.462Z" fill="#92FBFB"/>
<path d="M60.4717 223.522V235.28L68.4241 238.572L77.0392 235.28V223.522L68.4241 220.348L60.4717 223.522Z" fill="#92FBFB"/>
<path d="M120.943 261.05V270.67L128.101 273.364L135.854 270.67V261.05L128.101 258.453L120.943 261.05Z" fill="#92FBFB"/>
<path d="M88.6367 283.775V288.585L92.2153 289.931L96.0921 288.585V283.775L92.2153 282.476L88.6367 283.775Z" fill="#92FBFB"/>
<path d="M91.1211 244.013V248.823L94.6997 250.169L98.5765 248.823V244.013L94.6997 242.714L91.1211 244.013Z" fill="#92FBFB"/>
<path d="M78.6953 120.227V129.846L85.4549 132.54L92.7777 129.846V120.227L85.4549 117.629L78.6953 120.227Z" fill="#1FFFFF"/>
<path d="M151.593 109.458V119.078L158.75 121.771L166.504 119.078V109.458L158.75 106.86L151.593 109.458Z" fill="#1FFFFF"/>
<path d="M117.63 123.508V142.213L131.547 147.451L146.623 142.213V123.508L131.547 118.458L117.63 123.508Z" fill="#1FFFFF"/>
<path d="M51.3594 62.2083V80.9135L65.2761 86.151L80.3525 80.9135V62.2083L65.2761 57.1578L51.3594 62.2083Z" fill="#1FFFFF"/>
<path d="M64.6133 128.981V143.411L75.349 147.451L86.9794 143.411V128.981L75.349 125.085L64.6133 128.981Z" fill="#92FBFB"/>
<path d="M112.659 43.658V58.0878L123.793 62.1281L135.854 58.0878V43.658L123.793 39.762L112.659 43.658Z" fill="#92FBFB"/>
<path d="M75.3818 87.5619V101.992L86.5152 106.032L98.5763 101.992V87.5619L86.5152 83.6659L75.3818 87.5619Z" fill="#92FBFB"/>
<path d="M115.145 90.1913V105.156L126.278 109.346L138.339 105.156V90.1913L126.278 86.151L115.145 90.1913Z" fill="#92FBFB"/>
<path d="M110.174 194.994V199.27L112.957 200.467L115.972 199.27V194.994L112.957 193.84L110.174 194.994Z" fill="#71E7D6"/>
<path d="M82.0098 108.015V112.29L84.3955 113.487L86.98 112.29V108.015L84.3955 106.86L82.0098 108.015Z" fill="#71E7D6"/>
<path d="M0 79.8501L0 84.1255L2.78334 85.3227L5.79863 84.1255V79.8501L2.78334 78.6957L0 79.8501Z" fill="#71E7D6"/>
<path d="M34.792 178.176V184.589L38.7682 186.384L43.0757 184.589V178.176L38.7682 176.444L34.792 178.176Z" fill="#71E7D6"/>
<path d="M62.1279 192.258V198.671L66.1041 200.467L70.4117 198.671V192.258L66.1041 190.526L62.1279 192.258Z" fill="#71E7D6"/>
<path d="M149.937 137.403V140.076L151.527 140.824L153.25 140.076V137.403L151.527 136.682L149.937 137.403Z" fill="#92FBFB"/>
<path d="M27.3369 96.813V99.4852L28.9274 100.233L30.6504 99.4852V96.813L28.9274 96.0916L27.3369 96.813Z" fill="#92FBFB"/>
<path d="M59.6436 163.842V172.393L65.6079 174.787L72.0692 172.393V163.842L65.6079 161.533L59.6436 163.842Z" fill="#92FBFB"/>
<path d="M51.3594 144.859V147.531L52.9499 148.279L54.6729 147.531V144.859L52.9499 144.137L51.3594 144.859Z" fill="#92FBFB"/>
<path d="M6.62695 128.184V133.529L10.2055 135.025L14.0823 133.529V128.184L10.2055 126.741L6.62695 128.184Z" fill="#92FBFB"/>
<path d="M114.316 182.136V184.808L115.907 185.556L117.63 184.808V182.136L115.907 181.414L114.316 182.136Z" fill="#92FBFB"/>
<path d="M136.229 332.627C133.798 333.632 132.212 336.003 132.212 338.634V351.249C132.212 353.849 133.761 356.199 136.151 357.223L143.572 360.404C145.149 361.08 146.929 361.105 148.524 360.474L156.925 357.15C159.405 356.169 161.033 353.773 161.033 351.106V338.774C161.033 336.078 159.369 333.662 156.85 332.701L148.447 329.495C146.897 328.904 145.18 328.928 143.647 329.561L136.229 332.627Z" stroke="#71E7D6"/>
<path d="M136.061 302.901L131.384 304.99V312.897L136.061 315.064L141.153 312.887V305L136.061 302.901Z" stroke="#71E7D6"/>
<path d="M149.315 280.535L144.638 282.624V290.531L149.315 292.698L154.407 290.521V282.634L149.315 280.535Z" stroke="#92FBFB"/>
<path d="M143.118 258.991L128.898 264.848V286.63L143.118 292.704L158.548 286.62V264.858L143.118 258.991Z" stroke="#71E7D6"/>
<path d="M151.401 237.455L137.182 243.452V265.774L151.401 271.993L166.832 265.763V243.462L151.401 237.455Z" stroke="#92FBFB"/>
<path d="M139.407 215.917L125.585 221.769V243.558L139.407 249.627L154.406 243.548V221.779L139.407 215.917Z" stroke="#92FBFB"/>
<path d="M150.573 187.75L136.354 193.608V215.389L150.573 221.464L166.003 215.379V193.618L150.573 187.75Z" stroke="#92FBFB"/>
<path d="M92.5865 147.16L78.3672 153.018V174.799L92.5867 180.874L108.017 174.789V153.028L92.5865 147.16Z" stroke="#92FBFB"/>
<path d="M105.012 185.265L90.793 191.123V212.904L105.013 218.979L120.443 212.894V191.133L105.012 185.265Z" stroke="#92FBFB"/>
<path d="M92.6854 128.928L80.8525 133.222V149.093L92.6856 153.546L105.532 149.083V133.231L92.6854 128.928Z" stroke="#71E7D6"/>
<path d="M129.963 107.39L118.13 111.684V127.555L129.963 132.008L142.81 127.545V111.693L129.963 107.39Z" stroke="#71E7D6"/>
<path d="M72.8043 75.0814L60.9717 79.237V94.5657L72.8045 98.8752L85.6513 94.5563V79.2462L72.8043 75.0814Z" stroke="#71E7D6"/>
<path d="M144.873 96.6211L133.04 100.915V116.786L144.873 121.24L157.72 116.777V100.925L144.873 96.6211Z" stroke="#71E7D6"/>
<path d="M129.864 161.243L115.645 167.1V188.882L129.864 194.956L145.294 188.871V167.11L129.864 161.243Z" stroke="#92FBFB"/>
<path d="M109.983 87.5171L95.7637 93.3747V115.156L109.983 121.231L125.414 115.146V93.3847L109.983 87.5171Z" stroke="#92FBFB"/>
<path d="M71.148 113.196L59.3145 118.045V136.084L71.1482 141.112L83.9941 136.074V118.055L71.148 113.196Z" stroke="#92FBFB"/>
<path d="M141.991 78.4071L130.555 83.249V101.296L141.991 106.318L154.406 101.286V83.2591L141.991 78.4071Z" stroke="#1FFFFF"/>
<path d="M85.2312 51.0703L73.3975 56.0575V74.6381L85.2314 79.8101L98.0771 74.6278V56.0676L85.2312 51.0703Z" stroke="#1FFFFF"/>
<path d="M154.417 62.6679L142.98 67.5099V85.5573L154.417 90.5787L166.832 85.547V67.52L154.417 62.6679Z" stroke="#92FBFB"/>
<path d="M135.761 46.9264L123.928 51.7749V69.8139L135.762 74.8421L148.607 69.8037V51.7849L135.761 46.9264Z" stroke="#92FBFB"/>
<path d="M59.1539 49.4139L47.7178 54.2558V72.3033L59.1542 77.3246L71.569 72.293V54.266L59.1539 49.4139Z" stroke="#92FBFB"/>
<path d="M117.736 62.6674L110.674 65.635V76.7328L117.736 79.8104L125.413 76.7225V65.6451L117.736 62.6674Z" stroke="#92FBFB"/>
<path d="M150.375 17.1057L131.384 24.9821V54.2473L150.375 62.4155L170.974 54.2371V24.9921L150.375 17.1057Z" stroke="#92FBFB"/>
<path d="M140.832 0.536764L121.443 8.41716V37.6772L140.832 45.8496L161.862 37.6671V8.42711L140.832 0.536764Z" stroke="#1FFFFF"/>
</svg>
