<svg width="432" height="182" viewBox="0 0 432 182" fill="none" xmlns="http://www.w3.org/2000/svg">
<path d="M46.3411 85.016H64.199L69.1992 98.3022L64.199 112.696H46.3411L41.5195 98.3022L46.3411 85.016Z" fill="#92FBFB"/>
<path d="M65.0859 167.067H93.786L101.822 188.42L93.786 211.552H65.0859L57.3369 188.42L65.0859 167.067Z" fill="#1FFFFF"/>
<path d="M34.2682 117.638H62.3305L70.188 138.991L62.3305 162.124H34.2682L26.6914 138.991L34.2682 117.638Z" fill="#1FFFFF"/>
<path d="M155.57 50.4165L133.279 50.4165L125.547 67.1148L133.279 83.0389H155.57L163.112 67.1148L155.57 50.4165Z" fill="#71E7D6"/>
<path d="M44.4626 174.975H26.8645L20.7598 188.131L26.8645 200.678H44.4626L50.4165 188.131L44.4626 174.975Z" fill="#71E7D6"/>
<path d="M91.2148 61.2908H114.175L120.604 77.8986L114.175 95.8903H91.2148L85.0156 77.8986L91.2148 61.2908Z" fill="#1FFFFF"/>
<path d="M105.872 51.4053H128.194L134.444 68.0131L128.194 86.0048H105.872L99.8447 68.0131L105.872 51.4053Z" fill="#1FFFFF"/>
<path d="M200.945 102.811H223.905L230.334 119.418L223.905 137.41H200.945L194.746 119.418L200.945 102.811Z" fill="#1FFFFF"/>
<path d="M224.537 157.181H236.017L239.232 165.722L236.017 174.975H224.537L221.438 165.722L224.537 157.181Z" fill="#92FBFB"/>
<path d="M279.132 124.559L250.976 124.559L241.208 145.811L250.976 166.078H279.132L288.659 145.811L279.132 124.559Z" fill="#71E7D6"/>
<path d="M209.143 165.09H181.573L172.009 185.836L181.573 205.62H209.143L218.471 185.836L209.143 165.09Z" fill="#71E7D6"/>
<path d="M83.3981 31.6343L55.2411 31.6343L45.4736 52.3806L55.2411 72.1652H83.3981L92.9244 52.3806L83.3981 31.6343Z" fill="#71E7D6"/>
<path d="M162.681 105.776L135.111 105.776L125.547 127.028L135.111 147.295H162.681L172.009 127.028L162.681 105.776Z" fill="#71E7D6"/>
<path d="M84.3864 100.833L56.2294 100.833L46.4619 122.086L56.2294 142.353H84.3864L93.9127 122.086L84.3864 100.833Z" fill="#71E7D6"/>
<path d="M201.044 115.661H178.753L171.021 132.866L178.753 149.272H201.044L208.586 132.866L201.044 115.661Z" fill="#71E7D6"/>
<path d="M404.107 149.273H391.788L387.515 158.887L391.788 168.055H404.107L408.274 158.887L404.107 149.273Z" fill="#92FBFB"/>
<path d="M375.27 176.952H384.836L387.515 183.121L384.836 189.803H375.27L372.687 183.121L375.27 176.952Z" fill="#92FBFB"/>
<path d="M266.744 72.1652H280.776L284.704 81.6553L280.776 91.9363H266.744L262.956 81.6553L266.744 72.1652Z" fill="#92FBFB"/>
<path d="M311.53 144.33H323.01L326.225 152.871L323.01 162.124H311.53L308.431 152.871L311.53 144.33Z" fill="#92FBFB"/>
<path d="M338.648 105.776H344.388L345.996 110.046L344.388 114.673H338.648L337.099 110.046L338.648 105.776Z" fill="#92FBFB"/>
<path d="M291.197 108.742H296.937L298.544 113.012L296.937 117.639H291.197L289.647 113.012L291.197 108.742Z" fill="#92FBFB"/>
<path d="M143.475 93.9133H154.955L158.169 101.98L154.955 110.719H143.475L140.375 101.98L143.475 93.9133Z" fill="#1FFFFF"/>
<path d="M130.624 180.906H142.104L145.318 189.448L142.104 198.7H130.624L127.524 189.448L130.624 180.906Z" fill="#1FFFFF"/>
<path d="M147.39 140.375H169.713L175.963 156.983L169.713 174.975H147.39L141.363 156.983L147.39 140.375Z" fill="#1FFFFF"/>
<path d="M74.237 61.2908H96.5593L102.81 77.8986L96.5593 95.8903H74.237L68.21 77.8986L74.237 61.2908Z" fill="#1FFFFF"/>
<path d="M153.922 77.1077H171.142L175.964 89.9194L171.142 103.799H153.922L149.272 89.9194L153.922 77.1077Z" fill="#92FBFB"/>
<path d="M52.1006 134.444H69.3206L74.1422 147.73L69.3206 162.124H52.1006L47.4512 147.73L52.1006 134.444Z" fill="#92FBFB"/>
<path d="M104.494 89.9591H121.714L126.536 103.245L121.714 117.639H104.494L99.8447 103.245L104.494 89.9591Z" fill="#92FBFB"/>
<path d="M107.631 137.41H125.489L130.489 150.696L125.489 165.09H107.631L102.81 150.696L107.631 137.41Z" fill="#92FBFB"/>
<path d="M232.7 131.478H237.802L239.231 134.8L237.802 138.398H232.7L231.322 134.8L232.7 131.478Z" fill="#71E7D6"/>
<path d="M128.902 97.8675H134.004L135.433 100.715L134.004 103.799H128.902L127.524 100.715L128.902 97.8675Z" fill="#71E7D6"/>
<path d="M95.2907 0L100.393 0L101.822 3.32156L100.393 6.91991L95.2907 6.91991L93.9131 3.32156L95.2907 0Z" fill="#71E7D6"/>
<path d="M212.629 41.5198H220.282L222.425 46.2649L220.282 51.4054H212.629L210.562 46.2649L212.629 41.5198Z" fill="#71E7D6"/>
<path d="M229.435 74.1422H237.088L239.231 78.8873L237.088 84.0278H229.435L227.368 78.8873L229.435 74.1422Z" fill="#71E7D6"/>
<path d="M163.973 178.929H167.162L168.055 180.827L167.162 182.883H163.973L163.112 180.827L163.973 178.929Z" fill="#92FBFB"/>
<path d="M115.534 32.6226H118.723L119.616 34.5206L118.723 36.5768H115.534L114.673 34.5206L115.534 32.6226Z" fill="#92FBFB"/>
<path d="M195.524 71.1763H205.728L208.585 78.2939L205.728 86.0046H195.524L192.769 78.2939L195.524 71.1763Z" fill="#92FBFB"/>
<path d="M172.87 61.2908H176.059L176.952 63.1888L176.059 65.245H172.87L172.009 63.1888L172.87 61.2908Z" fill="#92FBFB"/>
<path d="M152.971 7.90845L159.349 7.90845L161.135 12.179L159.349 16.8055H152.971L151.249 12.179L152.971 7.90845Z" fill="#92FBFB"/>
<path d="M217.355 136.421H220.544L221.437 138.319L220.544 140.375H217.355L216.494 138.319L217.355 136.421Z" fill="#92FBFB"/>
<path d="M397.434 161.794C398.4 159.456 400.68 157.931 403.21 157.931H420.062C422.562 157.931 424.822 159.421 425.807 161.719L430.174 171.908C430.824 173.424 430.848 175.136 430.241 176.669L425.731 188.069C424.788 190.453 422.484 192.019 419.919 192.019H403.351C400.758 192.019 398.435 190.419 397.511 187.997L393.161 176.595C392.592 175.105 392.615 173.453 393.224 171.98L397.434 161.794Z" stroke="#71E7D6" stroke-width="1.5"/>
<path d="M361.64 162.373L364.066 156.942H373.305L375.82 162.373L373.289 168.294H364.081L361.64 162.373Z" stroke="#71E7D6" stroke-width="1.5"/>
<path d="M334.949 178.19L337.374 172.76H346.613L349.129 178.191L346.597 184.111H337.39L334.949 178.19Z" stroke="#92FBFB" stroke-width="1.5"/>
<path d="M309.237 170.795L316.165 153.977H341.955L349.139 170.795L341.939 189.054H316.18L309.237 170.795Z" stroke="#71E7D6" stroke-width="1.5"/>
<path d="M283.537 180.68L290.63 163.862H317.066L324.422 180.681L317.051 198.939H290.645L283.537 180.68Z" stroke="#92FBFB" stroke-width="1.5"/>
<path d="M257.835 166.366L264.755 150.023H290.555L297.731 166.367L290.539 184.111H264.77L257.835 166.366Z" stroke="#92FBFB" stroke-width="1.5"/>
<path d="M224.221 179.691L231.149 162.874H256.938L264.123 179.692L256.923 197.95H231.164L224.221 179.691Z" stroke="#92FBFB" stroke-width="1.5"/>
<path d="M175.781 110.492L182.709 93.6744H208.499L215.683 110.493L208.483 128.751H182.724L175.781 110.492Z" stroke="#92FBFB" stroke-width="1.5"/>
<path d="M221.255 125.321L228.183 108.503H253.972L261.157 125.321L253.957 143.58H228.198L221.255 125.321Z" stroke="#92FBFB" stroke-width="1.5"/>
<path d="M154.021 110.61L159.09 96.6404H177.817L183.074 110.61L177.803 125.786H159.104L154.021 110.61Z" stroke="#71E7D6" stroke-width="1.5"/>
<path d="M128.319 155.095L133.388 141.125H152.115L157.372 155.095L152.1 170.271H133.402L128.319 155.095Z" stroke="#71E7D6" stroke-width="1.5"/>
<path d="M89.7613 86.8845L94.6673 72.9152H112.744L117.832 86.8848L112.73 102.06H94.681L89.7613 86.8845Z" stroke="#71E7D6" stroke-width="1.5"/>
<path d="M115.467 172.889L120.537 158.919H139.263L144.521 172.889L139.249 188.065H120.551L115.467 172.889Z" stroke="#71E7D6" stroke-width="1.5"/>
<path d="M192.587 154.978L199.515 138.16H225.304L232.489 154.978L225.289 173.237H199.53L192.587 154.978Z" stroke="#92FBFB" stroke-width="1.5"/>
<path d="M104.605 131.252L111.533 114.434H137.323L144.508 131.253L137.308 149.511H111.548L104.605 131.252Z" stroke="#92FBFB" stroke-width="1.5"/>
<path d="M135.25 84.9089L140.975 70.9381H162.297L168.234 84.9092L162.282 100.083H140.99L135.25 84.9089Z" stroke="#92FBFB" stroke-width="1.5"/>
<path d="M93.7345 169.451L99.4487 155.954H120.784L126.71 169.451L120.769 184.111H99.4639L93.7345 169.451Z" stroke="#1FFFFF" stroke-width="1.5"/>
<path d="M61.1109 101.714L66.9988 87.7432H88.9703L95.0764 101.715L88.9549 116.888H67.014L61.1109 101.714Z" stroke="#1FFFFF" stroke-width="1.5"/>
<path d="M74.9513 184.279L80.6655 170.782H102.001L107.927 184.279L101.986 198.939H80.6807L74.9513 184.279Z" stroke="#92FBFB" stroke-width="1.5"/>
<path d="M56.1654 162.016L61.8896 148.046H83.2125L89.1488 162.017L83.1972 177.191H61.9046L56.1654 162.016Z" stroke="#92FBFB" stroke-width="1.5"/>
<path d="M59.1349 70.5949L64.8491 57.0984L86.1847 57.0984L92.1108 70.5953L86.1692 85.2551H64.8643L59.1349 70.5949Z" stroke="#92FBFB" stroke-width="1.5"/>
<path d="M74.9504 140.505L78.4284 132.228H91.4699L95.0768 140.505L91.4544 149.511H78.4435L74.9504 140.505Z" stroke="#92FBFB" stroke-width="1.5"/>
<path d="M20.5788 179.454L29.9156 156.942H64.6365L74.3193 179.455L64.6212 203.882H29.9307L20.5788 179.454Z" stroke="#92FBFB" stroke-width="1.5"/>
<path d="M0.805146 168.066L10.148 145.08H44.8611L54.5501 168.066L44.8459 193.008H10.1629L0.805146 168.066Z" stroke="#1FFFFF" stroke-width="1.5"/>
</svg>
