<svg width="289" height="111" viewBox="0 0 289 111" fill="none" xmlns="http://www.w3.org/2000/svg">
<path d="M31.0019 56.8742H42.9485L46.2935 65.7624L42.9485 75.3914H31.0019L27.7764 65.7624L31.0019 56.8742Z" fill="#92FBFB"/>
<path d="M22.9242 78.6981H41.6974L46.9539 92.9827L41.6974 108.458H22.9242L17.8555 92.9827L22.9242 78.6981Z" fill="#1FFFFF"/>
<path d="M104.073 33.7277L89.1613 33.7277L83.9883 44.8985L89.1613 55.5515H104.073L109.119 44.8985L104.073 33.7277Z" fill="#71E7D6"/>
<path d="M61.0212 41.0026H76.381L80.6818 52.1129L76.381 64.149H61.0212L56.874 52.1129L61.0212 41.0026Z" fill="#1FFFFF"/>
<path d="M70.8259 34.3892H85.7591L89.9404 45.4995L85.7591 57.5356H70.8259L66.7939 45.4995L70.8259 34.3892Z" fill="#1FFFFF"/>
<path d="M134.428 68.7783H149.788L154.089 79.8886L149.788 91.9248H134.428L130.281 79.8886L134.428 68.7783Z" fill="#1FFFFF"/>
<path d="M150.211 105.151H157.891L160.042 110.865L157.891 117.055H150.211L148.138 110.865L150.211 105.151Z" fill="#92FBFB"/>
<path d="M186.735 83.3274H167.899L161.364 97.5448L167.899 111.103H186.735L193.108 97.5448L186.735 83.3274Z" fill="#71E7D6"/>
<path d="M139.913 110.442H121.469L115.071 124.321L121.469 137.556H139.913L146.154 124.321L139.913 110.442Z" fill="#71E7D6"/>
<path d="M55.7917 21.1627L36.9552 21.1627L30.4209 35.0416L36.9552 48.2771L55.7917 48.2771L62.1646 35.0416L55.7917 21.1627Z" fill="#71E7D6"/>
<path d="M108.83 70.7621H90.3864L83.9883 84.9795L90.3864 98.5378H108.83L115.071 84.9795L108.83 70.7621Z" fill="#71E7D6"/>
<path d="M56.4528 67.4557H37.6163L31.082 81.6732L37.6163 95.2315H56.4528L62.8257 81.6732L56.4528 67.4557Z" fill="#71E7D6"/>
<path d="M134.495 77.3755H119.583L114.41 88.8848L119.583 99.8606H134.495L139.541 88.8848L134.495 77.3755Z" fill="#71E7D6"/>
<path d="M270.34 99.8608H262.099L259.24 106.293L262.099 112.426H270.34L273.128 106.293L270.34 99.8608Z" fill="#92FBFB"/>
<path d="M178.447 48.277H187.834L190.462 54.6258L187.834 61.5036H178.447L175.913 54.6258L178.447 48.277Z" fill="#92FBFB"/>
<path d="M208.408 96.5538H216.087L218.238 102.268L216.087 108.458H208.408L206.334 102.268L208.408 96.5538Z" fill="#92FBFB"/>
<path d="M226.549 70.7621H230.389L231.465 73.619L230.389 76.714H226.549L225.513 73.619L226.549 70.7621Z" fill="#92FBFB"/>
<path d="M194.805 72.7462H198.645L199.72 75.6031L198.645 78.6981H194.805L193.769 75.6031L194.805 72.7462Z" fill="#92FBFB"/>
<path d="M95.9818 62.8261H103.662L105.812 68.2225L103.662 74.0687H95.9818L93.9082 68.2225L95.9818 62.8261Z" fill="#1FFFFF"/>
<path d="M98.6013 93.9086H113.534L117.716 105.019L113.534 117.055H98.6013L94.5693 105.019L98.6013 93.9086Z" fill="#1FFFFF"/>
<path d="M49.6638 41.0026H64.597L68.7783 52.1129L64.597 64.149H49.6638L45.6318 52.1129L49.6638 41.0026Z" fill="#1FFFFF"/>
<path d="M102.971 51.5834H114.491L117.716 60.1542L114.491 69.4393H102.971L99.8604 60.1542L102.971 51.5834Z" fill="#92FBFB"/>
<path d="M34.8545 89.9408H46.3744L49.6 98.829L46.3744 108.458H34.8545L31.7441 98.829L34.8545 89.9408Z" fill="#92FBFB"/>
<path d="M69.9043 60.1809H81.4242L84.6498 69.0691L81.4242 78.6981H69.9043L66.7939 69.0691L69.9043 60.1809Z" fill="#92FBFB"/>
<path d="M72.0039 91.9249H83.9504L87.2955 100.813L83.9504 110.442H72.0039L68.7783 100.813L72.0039 91.9249Z" fill="#92FBFB"/>
<path d="M155.673 87.9564H159.086L160.042 90.1784L159.086 92.5857H155.673L154.751 90.1784L155.673 87.9564Z" fill="#71E7D6"/>
<path d="M86.2331 65.4717H89.6464L90.6021 67.3763L89.6464 69.4396H86.2331L85.3115 67.3763L86.2331 65.4717Z" fill="#71E7D6"/>
<path d="M63.7478 0L67.1611 0L68.1168 2.22206L67.1611 4.62929L63.7478 4.62929L62.8262 2.22206L63.7478 0Z" fill="#71E7D6"/>
<path d="M142.245 27.7761H147.365L148.798 30.9505L147.365 34.3894H142.245L140.862 30.9505L142.245 27.7761Z" fill="#71E7D6"/>
<path d="M153.488 49.5997H158.608L160.041 52.774L158.608 56.2129H153.488L152.105 52.774L153.488 49.5997Z" fill="#71E7D6"/>
<path d="M77.2899 21.8239H79.4232L80.0205 23.0936L79.4232 24.4692H77.2899L76.7139 23.0936L77.2899 21.8239Z" fill="#92FBFB"/>
<path d="M130.802 47.6156H137.629L139.54 52.3772L137.629 57.5355H130.802L128.959 52.3772L130.802 47.6156Z" fill="#92FBFB"/>
<path d="M115.647 41.0026H117.781L118.378 42.2723L117.781 43.6479H115.647L115.071 42.2723L115.647 41.0026Z" fill="#92FBFB"/>
<path d="M102.335 5.29077L106.601 5.29077L107.796 8.1477L106.601 11.2427H102.335L101.183 8.1477L102.335 5.29077Z" fill="#92FBFB"/>
<path d="M145.406 91.2634H147.539L148.137 92.5331L147.539 93.9087H145.406L144.83 92.5331L145.406 91.2634Z" fill="#92FBFB"/>
<path d="M265.283 109.668C266.288 107.237 268.659 105.651 271.29 105.651H279.486C282.087 105.651 284.437 107.201 285.461 109.591L287.404 114.125C288.08 115.702 288.105 117.482 287.474 119.077L285.388 124.35C284.407 126.83 282.01 128.459 279.344 128.459H271.43C268.734 128.459 266.318 126.795 265.357 124.276L263.344 118.999C262.753 117.45 262.777 115.732 263.41 114.2L265.283 109.668Z" stroke="#71E7D6"/>
<path d="M241.929 108.624L243.552 104.99H249.735L251.419 108.625L249.725 112.587H243.563L241.929 108.624Z" stroke="#71E7D6"/>
<path d="M206.872 114.259L211.507 103.006H228.762L233.569 114.259L228.752 126.475H211.517L206.872 114.259Z" stroke="#71E7D6"/>
<path d="M189.679 120.872L194.425 109.619H212.113L217.034 120.872L212.102 133.088H194.435L189.679 120.872Z" stroke="#92FBFB"/>
<path d="M172.485 111.296L177.115 100.361H194.377L199.178 111.296L194.367 123.169H177.125L172.485 111.296Z" stroke="#92FBFB"/>
<path d="M149.998 120.21L154.633 108.958H171.888L176.695 120.21L171.878 132.427H154.643L149.998 120.21Z" stroke="#92FBFB"/>
<path d="M117.592 73.9171L122.228 62.6646H139.483L144.29 73.9174L139.473 86.1337H122.238L117.592 73.9171Z" stroke="#92FBFB"/>
<path d="M148.013 83.8373L152.649 72.5847H169.904L174.711 83.8375L169.893 96.0538H152.659L148.013 83.8373Z" stroke="#92FBFB"/>
<path d="M103.035 73.9962L106.427 64.649H118.958L122.475 73.9964L118.948 84.1502H106.437L103.035 73.9962Z" stroke="#71E7D6"/>
<path d="M85.841 103.756L89.2331 94.4086H101.763L105.281 103.756L101.754 113.91H89.2425L85.841 103.756Z" stroke="#71E7D6"/>
<path d="M60.0472 58.124L63.3298 48.777H75.4254L78.8296 58.1242L75.416 68.2782H63.339L60.0472 58.124Z" stroke="#71E7D6"/>
<path d="M77.2434 115.66L80.6355 106.312H93.1655L96.6833 115.66L93.156 125.814H80.6448L77.2434 115.66Z" stroke="#71E7D6"/>
<path d="M128.835 103.677L133.47 92.4249H150.725L155.532 103.678L150.715 115.894H133.48L128.835 103.677Z" stroke="#92FBFB"/>
<path d="M69.9772 87.8051L74.6126 76.5526H91.8675L96.6747 87.8053L91.8573 100.022H74.6226L69.9772 87.8051Z" stroke="#92FBFB"/>
<path d="M90.4778 56.8023L94.3079 47.4545H108.575L112.547 56.8026L108.565 66.9556H94.3179L90.4778 56.8023Z" stroke="#92FBFB"/>
<path d="M62.7048 113.359L66.5283 104.329H80.8037L84.7688 113.36L80.7933 123.168H66.5384L62.7048 113.359Z" stroke="#1FFFFF"/>
<path d="M40.8802 68.0448L44.8199 58.6968H59.5207L63.6063 68.0451L59.5104 78.1979H44.83L40.8802 68.0448Z" stroke="#1FFFFF"/>
<path d="M37.5715 108.386L41.4016 99.0379H55.6685L59.6406 108.386L55.6584 118.539H41.4116L37.5715 108.386Z" stroke="#92FBFB"/>
<path d="M39.5583 47.2265L43.3818 38.1959H57.6572L61.6224 47.2268L57.6469 57.0357H43.3919L39.5583 47.2265Z" stroke="#92FBFB"/>
<path d="M50.1388 93.9952L52.4662 88.4564H61.193L63.6068 93.9954L61.1828 100.022H52.4763L50.1388 93.9952Z" stroke="#92FBFB"/>
<path d="M13.7648 120.052L20.0116 104.99H43.2416L49.7199 120.052L43.2314 136.395H20.0217L13.7648 120.052Z" stroke="#92FBFB"/>
<path d="M0.536764 112.433L6.78764 97.0538H30.0124L36.4949 112.433L30.0023 129.12H6.79758L0.536764 112.433Z" stroke="#1FFFFF"/>
</svg>
