<svg width="254" height="60" viewBox="0 0 254 60" fill="none" xmlns="http://www.w3.org/2000/svg">
<circle cx="30" cy="30" r="30" fill="#71E7D6"/>
<circle cx="127" cy="30" r="30" fill="#71E7D6"/>
<circle cx="224" cy="30" r="30" fill="#71E7D6"/>
<path d="M91.4249 32.8983C92.2051 32.1165 92.2038 30.8501 91.4219 30.0699L78.6806 17.3554C77.8987 16.5752 76.6324 16.5766 75.8522 17.3584C75.0719 18.1403 75.0733 19.4066 75.8551 20.1869L87.1808 31.4886L75.879 42.8143C75.0988 43.5961 75.1002 44.8625 75.882 45.6427C76.6639 46.4229 77.9302 46.4216 78.7105 45.6397L91.4249 32.8983ZM62.9928 33.5142L90.0113 33.4856L90.0071 29.4856L62.9886 29.5142L62.9928 33.5142Z" fill="#71E7D6"/>
<path d="M190.434 33.4125C191.214 32.6306 191.213 31.3643 190.431 30.5841L177.69 17.8696C176.908 17.0894 175.642 17.0907 174.861 17.8726C174.081 18.6545 174.083 19.9208 174.864 20.701L186.19 32.0028L174.888 43.3284C174.108 44.1103 174.109 45.3766 174.891 46.1568C175.673 46.9371 176.94 46.9357 177.72 46.1539L190.434 33.4125ZM162.002 34.0283L189.021 33.9998L189.016 29.9998L161.998 30.0283L162.002 34.0283Z" fill="#71E7D6"/>
</svg>
