<svg width="36" height="18" viewBox="0 0 36 18" fill="none" xmlns="http://www.w3.org/2000/svg">
<g clip-path="url(#clip0)">
<path d="M5.95728 11.4659C5.9697 11.4659 5.98213 11.4659 5.99704 11.4659C6.00201 11.4659 6.00698 11.4659 6.01195 11.4659C6.0194 11.4659 6.02934 11.4659 6.0368 11.4659C6.7649 11.4535 7.35384 11.1976 7.78871 10.708C8.74543 9.62953 8.58639 7.7807 8.569 7.60427C8.50687 6.27977 7.88066 5.6461 7.36378 5.35038C6.97861 5.12922 6.52883 5.00994 6.02686 5H6.00946C6.00698 5 6.00201 5 5.99952 5H5.98461C5.70878 5 5.16705 5.04473 4.64769 5.34044C4.12584 5.63616 3.48969 6.26983 3.42756 7.60427C3.41017 7.7807 3.25113 9.62953 4.20785 10.708C4.64024 11.1976 5.22918 11.4535 5.95728 11.4659ZM4.09105 7.66639C4.09105 7.65894 4.09354 7.65148 4.09354 7.64651C4.17554 5.86478 5.4404 5.67343 5.98213 5.67343H5.99207C5.99704 5.67343 6.00449 5.67343 6.01195 5.67343C6.68289 5.68834 7.8235 5.96169 7.90054 7.64651C7.90054 7.65397 7.90054 7.66142 7.90302 7.66639C7.90551 7.68379 8.07946 9.37358 7.28923 10.2632C6.97612 10.6161 6.55865 10.79 6.00946 10.795C6.00449 10.795 6.00201 10.795 5.99704 10.795C5.99207 10.795 5.98958 10.795 5.98461 10.795C5.43792 10.79 5.01795 10.6161 4.70733 10.2632C3.91959 9.37855 4.08857 7.6813 4.09105 7.66639Z" fill="#71E7D6"/>
<path d="M11.103 14.5324C11.103 14.5299 11.103 14.5274 11.103 14.5249C11.103 14.505 11.1005 14.4852 11.1005 14.4628C11.0856 13.9708 11.0533 12.8202 9.97482 12.4524C9.96736 12.45 9.95742 12.4475 9.94997 12.445C8.82924 12.1592 7.89737 11.5131 7.88743 11.5057C7.73584 11.3988 7.52711 11.4361 7.42025 11.5877C7.3134 11.7392 7.35067 11.948 7.50226 12.0548C7.5445 12.0847 8.53353 12.773 9.77105 13.0911C10.3501 13.2973 10.4147 13.9161 10.4321 14.4827C10.4321 14.505 10.4321 14.5249 10.4345 14.5448C10.437 14.7685 10.4221 15.1139 10.3824 15.3127C9.97979 15.5413 8.40182 16.3315 6.00132 16.3315C3.61077 16.3315 2.02286 15.5388 1.61781 15.3102C1.57805 15.1114 1.56065 14.766 1.56562 14.5423C1.56562 14.5224 1.56811 14.5026 1.56811 14.4802C1.5855 13.9136 1.65011 13.2949 2.22911 13.0886C3.46664 12.7705 4.45566 12.0797 4.49791 12.0524C4.64949 11.9455 4.68677 11.7368 4.57991 11.5852C4.47306 11.4336 4.26432 11.3963 4.11273 11.5032C4.10279 11.5106 3.17589 12.1567 2.05019 12.4425C2.04025 12.445 2.0328 12.4475 2.02534 12.45C0.94686 12.8202 0.914556 13.9708 0.899646 14.4603C0.899646 14.4827 0.899646 14.5026 0.897161 14.5224C0.897161 14.5249 0.897161 14.5274 0.897161 14.5299C0.894676 14.6591 0.892191 15.3226 1.0239 15.6556C1.04874 15.7202 1.09347 15.7749 1.15311 15.8122C1.22766 15.8619 3.01437 17 6.00381 17C8.99325 17 10.78 15.8594 10.8545 15.8122C10.9117 15.7749 10.9589 15.7202 10.9837 15.6556C11.108 15.3251 11.1055 14.6616 11.103 14.5324Z" fill="#71E7D6"/>
</g>
<g clip-path="url(#clip1)">
<path d="M29.9573 11.4659C29.9697 11.4659 29.9821 11.4659 29.997 11.4659C30.002 11.4659 30.007 11.4659 30.0119 11.4659C30.0194 11.4659 30.0293 11.4659 30.0368 11.4659C30.7649 11.4535 31.3538 11.1976 31.7887 10.708C32.7454 9.62953 32.5864 7.7807 32.569 7.60427C32.5069 6.27977 31.8807 5.6461 31.3638 5.35038C30.9786 5.12922 30.5288 5.00994 30.0269 5H30.0095C30.007 5 30.002 5 29.9995 5H29.9846C29.7088 5 29.1671 5.04473 28.6477 5.34044C28.1258 5.63616 27.4897 6.26983 27.4276 7.60427C27.4102 7.7807 27.2511 9.62953 28.2078 10.708C28.6402 11.1976 29.2292 11.4535 29.9573 11.4659ZM28.0911 7.66639C28.0911 7.65894 28.0935 7.65148 28.0935 7.64651C28.1755 5.86478 29.4404 5.67343 29.9821 5.67343H29.9921C29.997 5.67343 30.0045 5.67343 30.0119 5.67343C30.6829 5.68834 31.8235 5.96169 31.9005 7.64651C31.9005 7.65397 31.9005 7.66142 31.903 7.66639C31.9055 7.68379 32.0795 9.37358 31.2892 10.2632C30.9761 10.6161 30.5586 10.79 30.0095 10.795C30.0045 10.795 30.002 10.795 29.997 10.795C29.9921 10.795 29.9896 10.795 29.9846 10.795C29.4379 10.79 29.018 10.6161 28.7073 10.2632C27.9196 9.37855 28.0886 7.6813 28.0911 7.66639Z" fill="#71E7D6"/>
<path d="M35.103 14.5324C35.103 14.5299 35.103 14.5274 35.103 14.5249C35.103 14.505 35.1005 14.4852 35.1005 14.4628C35.0856 13.9708 35.0533 12.8202 33.9748 12.4524C33.9674 12.45 33.9574 12.4475 33.95 12.445C32.8292 12.1592 31.8974 11.5131 31.8874 11.5057C31.7358 11.3988 31.5271 11.4361 31.4203 11.5877C31.3134 11.7392 31.3507 11.948 31.5023 12.0548C31.5445 12.0847 32.5335 12.773 33.771 13.0911C34.3501 13.2973 34.4147 13.9161 34.4321 14.4827C34.4321 14.505 34.4321 14.5249 34.4345 14.5448C34.437 14.7685 34.4221 15.1139 34.3824 15.3127C33.9798 15.5413 32.4018 16.3315 30.0013 16.3315C27.6108 16.3315 26.0229 15.5388 25.6178 15.3102C25.578 15.1114 25.5607 14.766 25.5656 14.5423C25.5656 14.5224 25.5681 14.5026 25.5681 14.4802C25.5855 13.9136 25.6501 13.2949 26.2291 13.0886C27.4666 12.7705 28.4557 12.0797 28.4979 12.0524C28.6495 11.9455 28.6868 11.7368 28.5799 11.5852C28.4731 11.4336 28.2643 11.3963 28.1127 11.5032C28.1028 11.5106 27.1759 12.1567 26.0502 12.4425C26.0403 12.445 26.0328 12.4475 26.0253 12.45C24.9469 12.8202 24.9146 13.9708 24.8996 14.4603C24.8996 14.4827 24.8996 14.5026 24.8972 14.5224C24.8972 14.5249 24.8972 14.5274 24.8972 14.5299C24.8947 14.6591 24.8922 15.3226 25.0239 15.6556C25.0487 15.7202 25.0935 15.7749 25.1531 15.8122C25.2277 15.8619 27.0144 17 30.0038 17C32.9932 17 34.78 15.8594 34.8545 15.8122C34.9117 15.7749 34.9589 15.7202 34.9837 15.6556C35.108 15.3251 35.1055 14.6616 35.103 14.5324Z" fill="#71E7D6"/>
</g>
<path d="M17.5907 9.6989C17.6093 9.6989 17.628 9.6989 17.6503 9.6989C17.6578 9.6989 17.6653 9.6989 17.6727 9.6989C17.6839 9.6989 17.6988 9.6989 17.71 9.6989C18.8021 9.68027 19.6856 9.29633 20.3379 8.56202C21.7729 6.94429 21.5344 4.17105 21.5083 3.9064C21.4151 1.91965 20.4758 0.969145 19.7005 0.525575C19.1227 0.193829 18.448 0.0149099 17.6951 0H17.669C17.6653 0 17.6578 0 17.6541 0H17.6317C17.218 0 16.4054 0.0670946 15.6263 0.510665C14.8436 0.954235 13.8893 1.90474 13.7961 3.9064C13.77 4.17105 13.5315 6.94429 14.9666 8.56202C15.6151 9.29633 16.4986 9.68027 17.5907 9.6989ZM14.7914 3.99959C14.7914 3.9884 14.7951 3.97722 14.7951 3.96977C14.9181 1.29716 16.8154 1.01015 17.628 1.01015H17.6429C17.6503 1.01015 17.6615 1.01015 17.6727 1.01015C18.6791 1.03251 20.3901 1.44253 20.5056 3.96977C20.5056 3.98095 20.5056 3.99213 20.5093 3.99959C20.5131 4.02568 20.774 6.56036 19.5886 7.8948C19.119 8.4241 18.4928 8.68503 17.669 8.69248C17.6615 8.69248 17.6578 8.69248 17.6503 8.69248C17.6429 8.69248 17.6392 8.69248 17.6317 8.69248C16.8117 8.68503 16.1817 8.4241 15.7158 7.8948C14.5342 6.56782 14.7876 4.02195 14.7914 3.99959Z" fill="#71E7D6"/>
<path d="M25.3098 14.2987C25.3098 14.295 25.3098 14.2912 25.3098 14.2875C25.3098 14.2577 25.306 14.2279 25.306 14.1943C25.2837 13.4563 25.2352 11.7304 23.6175 11.1788C23.6063 11.175 23.5914 11.1713 23.5802 11.1676C21.8991 10.7389 20.5013 9.76978 20.4864 9.7586C20.259 9.59832 19.9459 9.65423 19.7856 9.88161C19.6254 10.109 19.6813 10.4221 19.9087 10.5824C19.972 10.6271 21.4556 11.6596 23.3118 12.1367C24.1803 12.4461 24.2773 13.3743 24.3034 14.2241C24.3034 14.2577 24.3034 14.2875 24.3071 14.3173C24.3108 14.6528 24.2884 15.1709 24.2288 15.4691C23.625 15.812 21.258 16.9974 17.6573 16.9974C14.0714 16.9974 11.6896 15.8083 11.082 15.4654C11.0223 15.1672 10.9963 14.6491 11.0037 14.3136C11.0037 14.2838 11.0074 14.2539 11.0074 14.2204C11.0335 13.3705 11.1304 12.4424 11.9989 12.133C13.8552 11.6559 15.3388 10.6196 15.4021 10.5786C15.6295 10.4184 15.6854 10.1053 15.5251 9.87788C15.3649 9.6505 15.0517 9.59459 14.8244 9.75487C14.8095 9.76606 13.4191 10.7352 11.7306 11.1639C11.7157 11.1676 11.7045 11.1713 11.6933 11.175C10.0756 11.7304 10.0271 13.4563 10.0047 14.1906C10.0047 14.2241 10.0047 14.2539 10.001 14.2838C10.001 14.2875 10.001 14.2912 10.001 14.295C9.99729 14.4888 9.99356 15.484 10.1911 15.9835C10.2284 16.0804 10.2955 16.1624 10.3849 16.2183C10.4968 16.2929 13.1768 18.0001 17.661 18.0001C22.1451 18.0001 24.8252 16.2892 24.937 16.2183C25.0228 16.1624 25.0936 16.0804 25.1309 15.9835C25.3172 15.4877 25.3135 14.4925 25.3098 14.2987Z" fill="#71E7D6"/>
<defs>
<clipPath id="clip0">
<rect width="12" height="12" fill="white" transform="translate(0 5)"/>
</clipPath>
<clipPath id="clip1">
<rect width="12" height="12" fill="white" transform="translate(24 5)"/>
</clipPath>
</defs>
</svg>
