<svg width="22" height="22" viewBox="0 0 22 22" fill="none" xmlns="http://www.w3.org/2000/svg">
<path d="M4.4582 14.6241C6.63634 17.218 9.25834 19.2603 12.251 20.7053C13.3904 21.2433 14.9142 21.8815 16.6118 21.9909C16.7171 21.9954 16.8178 22 16.923 22C18.0624 22 18.9776 21.608 19.7235 20.8011C19.728 20.7965 19.7372 20.7874 19.7418 20.7783C20.0072 20.4592 20.3092 20.172 20.6249 19.8666C20.84 19.6614 21.0596 19.4472 21.2701 19.2283C22.2448 18.2163 22.2448 16.9308 21.261 15.9507L18.5109 13.2109C18.0441 12.7277 17.4858 12.4724 16.9001 12.4724C16.3144 12.4724 15.7516 12.7277 15.2711 13.2064L13.6329 14.8384C13.4819 14.7518 13.3263 14.6743 13.1799 14.6013C12.9969 14.5102 12.8276 14.4235 12.6766 14.3278C11.1848 13.3842 9.83033 12.1533 8.53535 10.5715C7.88099 9.74637 7.4417 9.05346 7.13511 8.34687C7.56525 7.95939 7.96793 7.55367 8.35689 7.15707C8.49416 7.01575 8.63602 6.87443 8.77787 6.73311C9.27207 6.24078 9.53747 5.67095 9.53747 5.092C9.53747 4.51305 9.27665 3.94322 8.77787 3.45089L7.41425 2.09242C7.25409 1.93286 7.10308 1.77787 6.9475 1.61832C6.64549 1.30833 6.32975 0.989225 6.01859 0.702031C5.54727 0.241608 4.99358 0 4.40787 0C3.82672 0 3.26846 0.241608 2.77884 0.706589L1.06744 2.41152C0.445118 3.0315 0.0927718 3.78367 0.0195571 4.65437C-0.0673854 5.74389 0.133955 6.90178 0.65561 8.30129C1.4564 10.4666 2.66444 12.477 4.4582 14.6241ZM1.13608 4.7501C1.19099 4.1438 1.42436 3.6378 1.86365 3.20017L3.5659 1.50435C3.8313 1.24907 4.12416 1.11687 4.40787 1.11687C4.687 1.11687 4.9707 1.24907 5.23153 1.51347C5.53812 1.7961 5.8264 2.09242 6.13756 2.40696C6.29315 2.56651 6.4533 2.72607 6.61346 2.89018L7.97708 4.24865C8.26079 4.53129 8.40722 4.81848 8.40722 5.10112C8.40722 5.38375 8.26079 5.67095 7.97708 5.95359C7.83523 6.0949 7.69338 6.24078 7.55152 6.3821C7.12596 6.81061 6.72786 7.21633 6.28857 7.60381C6.27942 7.61293 6.27484 7.61749 6.26569 7.62661C5.88589 8.00497 5.94538 8.36511 6.03689 8.63862C6.04147 8.6523 6.04605 8.66142 6.05062 8.67509C6.40297 9.51844 6.89259 10.3208 7.65677 11.2781C9.02955 12.9648 10.4755 14.2731 12.068 15.2806C12.2647 15.4082 12.4752 15.5085 12.672 15.6088C12.855 15.7 13.0243 15.7866 13.1753 15.8823C13.1936 15.8914 13.2074 15.9005 13.2257 15.9097C13.3767 15.9872 13.5231 16.0236 13.6695 16.0236C14.0356 16.0236 14.2736 15.7911 14.3513 15.7136L16.0627 14.0087C16.3281 13.7443 16.6164 13.603 16.9001 13.603C17.2479 13.603 17.5316 13.8172 17.7101 14.0087L20.4693 16.753C21.0185 17.3 21.0139 17.8927 20.4556 18.4716C20.2634 18.6768 20.0621 18.8728 19.847 19.0779C19.5267 19.3879 19.1927 19.707 18.8907 20.0671C18.3644 20.6324 17.7375 20.8968 16.9276 20.8968C16.8498 20.8968 16.7674 20.8923 16.6896 20.8877C15.1887 20.792 13.7931 20.2085 12.7452 19.7116C9.89897 18.3394 7.40052 16.3929 5.32763 13.9221C3.62081 11.8753 2.47225 9.96975 1.71265 7.92748C1.24133 6.67385 1.06287 5.66639 1.13608 4.7501Z" fill="#71E7D6"/>
</svg>
