<svg width="23" height="23" viewBox="0 0 23 23" fill="none" xmlns="http://www.w3.org/2000/svg">
<g clip-path="url(#clip0)">
<path d="M22.7554 9.34657L11.8531 1.36408C11.6428 1.21018 11.3572 1.21018 11.1471 1.36408L0.244626 9.34657C-0.0216713 9.54157 -0.0795307 9.9155 0.115475 10.1818C0.310481 10.4481 0.684456 10.5059 0.950708 10.3109L11.5 2.5869L22.0493 10.3109C22.1557 10.3888 22.2793 10.4264 22.4019 10.4264C22.5859 10.4264 22.7675 10.3417 22.8845 10.1818C23.0796 9.9155 23.0217 9.54157 22.7554 9.34657Z" fill="#71E7D6"/>
<path d="M19.8667 10.4462C19.5367 10.4462 19.2691 10.7137 19.2691 11.0438V20.5559H14.4885V15.3636C14.4885 13.7159 13.1479 12.3754 11.5002 12.3754C9.8526 12.3754 8.51204 13.7159 8.51204 15.3636V20.556H3.73132V11.0438C3.73132 10.7138 3.46372 10.4462 3.13373 10.4462C2.80373 10.4462 2.53613 10.7138 2.53613 11.0438V21.1536C2.53613 21.4837 2.80373 21.7512 3.13373 21.7512H9.10964C9.42391 21.7512 9.68109 21.5084 9.7049 21.2002C9.70634 21.1862 9.70724 21.1709 9.70724 21.1536V15.3636C9.70724 14.3749 10.5116 13.5706 11.5002 13.5706C12.4889 13.5706 13.2933 14.375 13.2933 15.3636V21.1536C13.2933 21.1708 13.2942 21.1858 13.2956 21.1996C13.3191 21.5081 13.5764 21.7512 13.8909 21.7512H19.8668C20.1968 21.7512 20.4644 21.4837 20.4644 21.1536V11.0438C20.4643 10.7137 20.1968 10.4462 19.8667 10.4462Z" fill="#71E7D6"/>
</g>
<defs>
<clipPath id="clip0">
<rect width="23" height="23" fill="white"/>
</clipPath>
</defs>
</svg>
