<svg width="22" height="18" viewBox="0 0 22 18" fill="none" xmlns="http://www.w3.org/2000/svg">
<path d="M0 5.26948V14.6307C0 16.0596 1.20327 17.22 2.6849 17.22H19.3151C20.7967 17.22 22 16.0596 22 14.6307V5.26948C22 3.9099 20.8551 2.80577 19.4453 2.80577H15.8714L15.7861 2.44639C15.4404 1.00454 14.1249 0 12.5894 0H9.40612C7.8751 0 6.55959 1.00454 6.20939 2.44639L6.12408 2.80577H2.55469C1.1449 2.80577 0 3.91423 0 5.26948ZM6.56408 3.8666C6.82 3.8666 7.04 3.69773 7.09837 3.45526L7.28245 2.68454C7.51592 1.72763 8.38694 1.06082 9.40612 1.06082H12.5894C13.6086 1.06082 14.4796 1.72763 14.7131 2.68454L14.8971 3.45526C14.9555 3.6934 15.1755 3.8666 15.4314 3.8666H19.4408C20.2445 3.8666 20.8955 4.49443 20.8955 5.26948V14.6307C20.8955 15.4751 20.1861 16.1592 19.3106 16.1592H2.6849C1.80939 16.1592 1.1 15.4751 1.1 14.6307V5.26948C1.1 4.49443 1.75102 3.8666 2.55469 3.8666H6.56408V3.8666Z" fill="#71E7D6"/>
<path d="M3.72168 6.84123C4.12834 6.84123 4.458 6.5233 4.458 6.13112C4.458 5.73894 4.12834 5.42102 3.72168 5.42102C3.31502 5.42102 2.98535 5.73894 2.98535 6.13112C2.98535 6.5233 3.31502 6.84123 3.72168 6.84123Z" fill="#71E7D6"/>
<path d="M10.9999 14.4965C13.5456 14.4965 15.6199 12.4961 15.6199 10.041C15.6199 7.58598 13.5456 5.58557 10.9999 5.58557C8.45417 5.58557 6.37988 7.58165 6.37988 10.041C6.37988 12.5004 8.45417 14.4965 10.9999 14.4965ZM10.9999 6.6464C12.9395 6.6464 14.5199 8.17052 14.5199 10.041C14.5199 11.9116 12.9395 13.4357 10.9999 13.4357C9.06029 13.4357 7.47988 11.9116 7.47988 10.041C7.47988 8.17052 9.06029 6.6464 10.9999 6.6464Z" fill="#71E7D6"/>
</svg>
